<svg version="1.1" id="Layer_1" xmlns="http://www.w3.org/2000/svg" xmlns:xlink="http://www.w3.org/1999/xlink" x="0px" y="0px"
	 width="100%" viewBox="0 0 631 208" enable-background="new 0 0 631 208" xml:space="preserve">
<path fill="#233B57" opacity="1.000000" stroke="none" 
	d="
M203.000000,1.000000 
	C239.687561,1.000000 276.375122,1.000000 313.675720,1.371076 
	C316.348969,2.163547 318.425751,2.517190 320.466858,3.016679 
	C344.129578,8.807325 361.008179,22.559782 368.809174,45.916908 
	C372.469452,56.876217 373.387604,68.342720 372.168243,80.110069 
	C370.642914,94.830147 365.943909,107.812080 355.803070,118.717155 
	C349.092316,125.933670 340.975769,131.053986 331.862823,134.800400 
	C345.361359,155.365219 358.736023,175.611618 371.941498,195.967789 
	C374.621765,200.099442 376.663757,204.645172 379.000000,209.000000 
	C358.979095,209.000000 338.958221,209.000000 318.465088,208.634705 
	C315.671814,204.584351 313.350800,200.899261 311.029694,197.214249 
	C299.739563,179.289917 288.462372,161.357361 277.124176,143.463486 
	C276.502228,142.481934 275.397064,141.156296 274.474396,141.121689 
	C268.725433,140.906082 262.964417,141.012985 257.000000,141.012985 
	C257.000000,164.088226 257.000000,186.544113 257.000000,209.000000 
	C239.312439,209.000000 221.624878,209.000000 203.468658,208.531342 
	C203.000000,139.041794 203.000000,70.020897 203.000000,1.000000 
M315.997833,60.895115 
	C313.779022,57.958748 312.160126,53.726089 309.213501,52.362408 
	C303.506744,49.721336 297.125671,47.668999 290.892059,47.224781 
	C279.709564,46.427879 268.429474,47.000000 257.267242,47.000000 
	C257.267242,63.397419 257.267242,79.138565 257.267242,94.814560 
	C259.281189,95.247971 261.024353,95.933479 262.773468,95.949013 
	C273.919800,96.048065 285.070465,96.159225 296.213593,95.946030 
	C304.283630,95.791641 315.041595,89.108009 315.728394,83.152954 
	C316.541687,76.100777 315.971649,68.889053 315.997833,60.895115 
z"/>
<path fill="#233B57" opacity="1.000000" stroke="none" 
	d="
M99.000000,209.000000 
	C66.368645,209.000000 33.737289,209.000000 1.052969,209.000000 
	C1.052969,139.776962 1.052969,70.553871 1.052969,1.000000 
	C33.686817,1.000000 66.374748,1.000000 99.679092,1.373639 
	C113.523109,4.215416 126.316696,7.749784 138.174973,14.516023 
	C152.753967,22.834686 164.192703,34.092918 171.937759,48.899799 
	C184.907745,73.695663 187.517578,100.023346 183.056412,127.379738 
	C179.328690,150.238449 169.987930,169.951782 152.222137,185.337494 
	C142.112442,194.092773 130.631485,200.181885 117.895950,203.968582 
	C111.650749,205.825470 105.301926,207.333878 99.000000,209.000000 
M55.000000,88.500000 
	C55.000000,112.576103 55.000000,136.652206 55.000000,159.998688 
	C66.966537,159.998688 78.482918,161.116486 89.686592,159.721970 
	C104.419533,157.888153 115.960442,149.749176 122.900917,136.290970 
	C131.370926,119.866814 131.951782,102.573158 127.457100,84.915619 
	C124.637352,73.838127 118.987198,64.684555 109.572121,57.914711 
	C92.946350,45.960079 73.977783,48.079300 55.000000,48.093655 
	C55.000000,61.570030 55.000000,74.535011 55.000000,88.500000 
z"/>
<path fill="#FFFFFF" opacity="1.000000" stroke="none" 
	d="
M523.000000,0.999999 
	C538.020874,1.000000 553.041809,1.000000 568.531372,1.416257 
	C569.496399,4.215765 569.890198,6.625751 570.504395,8.978214 
	C578.336487,38.978268 586.175720,68.976517 594.073975,98.959167 
	C595.916687,105.954063 597.987122,112.888939 600.121399,120.448761 
	C600.965088,118.910133 601.621582,118.124146 601.854858,117.228027 
	C610.277161,84.865578 618.542969,52.461456 627.205505,20.163710 
	C628.220764,16.378443 627.231812,11.319143 632.000000,9.000000 
	C632.000000,75.552109 632.000000,142.104218 632.000000,209.000000 
	C613.980591,209.000000 595.958923,209.000000 577.468628,208.577774 
	C576.963257,206.994583 577.148804,205.773819 576.855103,204.681976 
	C574.087585,194.393448 571.174438,184.143921 568.424866,173.850708 
	C560.923767,145.770508 553.417603,117.691330 546.033691,89.580147 
	C538.283081,60.072536 530.672058,30.528255 523.000000,0.999999 
z"/>
<path fill="#233B57" opacity="1.000000" stroke="none" 
	d="
M485.000000,209.000000 
	C467.312439,209.000000 449.624878,209.000000 431.468658,208.582230 
	C430.979004,207.331940 431.123810,206.454666 430.912903,205.673416 
	C424.643921,182.451859 418.233185,159.268112 412.066681,136.019531 
	C403.372406,103.240952 394.827759,70.422562 386.275787,37.606426 
	C383.101471,25.425756 380.087250,13.203365 377.000000,1.000000 
	C394.354218,1.000000 411.708466,1.000000 429.648682,1.374106 
	C434.411682,17.307999 438.605530,32.863274 442.761871,48.428581 
	C449.839600,74.934357 456.961029,101.428726 463.939026,127.960793 
	C471.038055,154.953171 477.985931,181.985291 485.000000,209.000000 
z"/>
<path fill="#233B57" opacity="1.000000" stroke="none" 
	d="
M522.531372,0.999999 
	C530.672058,30.528255 538.283081,60.072536 546.033691,89.580147 
	C553.417603,117.691330 560.923767,145.770508 568.424866,173.850708 
	C571.174438,184.143921 574.087585,194.393448 576.855103,204.681976 
	C577.148804,205.773819 576.963257,206.994583 577.000000,208.577774 
	C559.645752,209.000000 542.291565,209.000000 524.468262,208.592224 
	C516.676147,180.733032 509.290710,153.298065 502.046173,125.825943 
	C493.439392,93.187958 484.914001,60.528336 476.441681,27.855186 
	C474.131439,18.945730 472.138550,9.953977 470.000000,0.999998 
	C487.354218,1.000000 504.708466,1.000000 522.531372,0.999999 
z"/>
<path fill="#FFFFFF" opacity="1.000000" stroke="none" 
	d="
M376.531342,1.000000 
	C380.087250,13.203365 383.101471,25.425756 386.275787,37.606426 
	C394.827759,70.422562 403.372406,103.240952 412.066681,136.019531 
	C418.233185,159.268112 424.643921,182.451859 430.912903,205.673416 
	C431.123810,206.454666 430.979004,207.331940 431.000000,208.582230 
	C413.979095,209.000000 396.958221,209.000000 379.468658,209.000000 
	C376.663757,204.645172 374.621765,200.099442 371.941498,195.967789 
	C358.736023,175.611618 345.361359,155.365219 331.862823,134.800400 
	C340.975769,131.053986 349.092316,125.933670 355.803070,118.717155 
	C365.943909,107.812080 370.642914,94.830147 372.168243,80.110069 
	C373.387604,68.342720 372.469452,56.876217 368.809174,45.916908 
	C361.008179,22.559782 344.129578,8.807325 320.466858,3.016679 
	C318.425751,2.517190 316.348969,2.163547 314.144379,1.371076 
	C334.687561,1.000000 355.375122,1.000000 376.531342,1.000000 
z"/>
<path fill="#FFFFFF" opacity="1.000000" stroke="none" 
	d="
M469.531372,0.999998 
	C472.138550,9.953977 474.131439,18.945730 476.441681,27.855186 
	C484.914001,60.528336 493.439392,93.187958 502.046173,125.825943 
	C509.290710,153.298065 516.676147,180.733032 523.999573,208.592224 
	C511.312439,209.000000 498.624878,209.000000 485.468658,209.000000 
	C477.985931,181.985291 471.038055,154.953171 463.939026,127.960793 
	C456.961029,101.428726 449.839600,74.934357 442.761871,48.428581 
	C438.605530,32.863274 434.411682,17.307999 430.117340,1.374106 
	C443.020905,1.000000 456.041779,1.000000 469.531372,0.999998 
z"/>
<path fill="#FFFFFF" opacity="1.000000" stroke="none" 
	d="
M99.468658,209.000000 
	C105.301926,207.333878 111.650749,205.825470 117.895950,203.968582 
	C130.631485,200.181885 142.112442,194.092773 152.222137,185.337494 
	C169.987930,169.951782 179.328690,150.238449 183.056412,127.379738 
	C187.517578,100.023346 184.907745,73.695663 171.937759,48.899799 
	C164.192703,34.092918 152.753967,22.834686 138.174973,14.516023 
	C126.316696,7.749784 113.523109,4.215416 100.147751,1.373639 
	C134.020889,1.000000 168.041794,1.000000 202.531342,1.000000 
	C203.000000,70.020897 203.000000,139.041794 203.000000,208.531342 
	C168.645767,209.000000 134.291550,209.000000 99.468658,209.000000 
z"/>
<path fill="#00D4C2" opacity="1.000000" stroke="none" 
	d="
M632.000000,8.505266 
	C627.231812,11.319143 628.220764,16.378443 627.205505,20.163710 
	C618.542969,52.461456 610.277161,84.865578 601.854858,117.228027 
	C601.621582,118.124146 600.965088,118.910133 600.121399,120.448761 
	C597.987122,112.888939 595.916687,105.954063 594.073975,98.959167 
	C586.175720,68.976517 578.336487,38.978268 570.504395,8.978214 
	C569.890198,6.625751 569.496399,4.215765 569.000061,1.416257 
	C590.000000,1.000000 611.000061,1.000000 632.000000,1.000000 
	C632.000000,3.376268 632.000000,5.693401 632.000000,8.505266 
z"/>
<path fill="#FFFFFF" opacity="1.000000" stroke="none" 
	d="
M257.468658,209.000000 
	C257.000000,186.544113 257.000000,164.088226 257.000000,141.012985 
	C262.964417,141.012985 268.725433,140.906082 274.474396,141.121689 
	C275.397064,141.156296 276.502228,142.481934 277.124176,143.463486 
	C288.462372,161.357361 299.739563,179.289917 311.029694,197.214249 
	C313.350800,200.899261 315.671814,204.584351 317.996429,208.634705 
	C297.979095,209.000000 277.958221,209.000000 257.468658,209.000000 
z"/>
<path fill="#FFFFFF" opacity="1.000000" stroke="none" 
	d="
M315.999512,61.320801 
	C315.971649,68.889053 316.541687,76.100777 315.728394,83.152954 
	C315.041595,89.108009 304.283630,95.791641 296.213593,95.946030 
	C285.070465,96.159225 273.919800,96.048065 262.773468,95.949013 
	C261.024353,95.933479 259.281189,95.247971 257.267242,94.814560 
	C257.267242,79.138565 257.267242,63.397419 257.267242,47.000000 
	C268.429474,47.000000 279.709564,46.427879 290.892059,47.224781 
	C297.125671,47.668999 303.506744,49.721336 309.213501,52.362408 
	C312.160126,53.726089 313.779022,57.958748 315.999512,61.320801 
z"/>
<path fill="#FFFFFF" opacity="1.000000" stroke="none" 
	d="
M55.000000,88.000000 
	C55.000000,74.535011 55.000000,61.570030 55.000000,48.093655 
	C73.977783,48.079300 92.946350,45.960079 109.572121,57.914711 
	C118.987198,64.684555 124.637352,73.838127 127.457100,84.915619 
	C131.951782,102.573158 131.370926,119.866814 122.900917,136.290970 
	C115.960442,149.749176 104.419533,157.888153 89.686592,159.721970 
	C78.482918,161.116486 66.966537,159.998688 55.000000,159.998688 
	C55.000000,136.652206 55.000000,112.576103 55.000000,88.000000 
z"/>
</svg>