<svg version="1.1" id="Layer_1" xmlns="http://www.w3.org/2000/svg" xmlns:xlink="http://www.w3.org/1999/xlink" x="0px" y="0px"
	 width="100%" viewBox="0 0 1284 361" enable-background="new 0 0 1284 361" xml:space="preserve">
<path fill="#FFFFFF" opacity="1.000000" stroke="none" 
	d="
M869.000000,362.000000 
	C579.333374,362.000000 290.166748,362.000000 1.000078,362.000000 
	C1.000052,241.666718 1.000052,121.333427 1.000026,1.000110 
	C428.999908,1.000073 856.999817,1.000073 1284.999756,1.000037 
	C1284.999878,121.333221 1284.999878,241.666443 1285.000000,361.999817 
	C1146.500000,362.000000 1008.000000,362.000000 869.000000,362.000000 
M329.003418,198.676285 
	C328.336670,203.335510 327.834473,208.025299 326.975861,212.648895 
	C322.134735,238.717438 310.191589,261.344727 292.523376,280.821381 
	C278.052246,296.773773 260.744751,308.943939 240.620682,317.118408 
	C224.220596,323.780212 207.335022,327.693512 189.663162,327.933838 
	C183.584686,328.016541 177.495148,327.345062 171.411804,326.997986 
	C157.392517,326.198151 144.055908,322.334930 131.270782,316.929657 
	C106.540916,306.474457 86.049652,290.536224 70.092010,268.700836 
	C52.370987,244.452515 43.546043,217.231888 42.153202,187.532043 
	C41.795868,179.912506 43.361012,172.207321 43.981117,164.536469 
	C45.193359,149.540924 50.111980,135.564606 56.486355,122.175797 
	C66.612038,100.907707 81.337097,83.240967 100.309364,69.189636 
	C128.842636,48.057198 160.611710,38.294094 196.267319,40.844185 
	C209.184952,41.768051 221.520844,44.615940 233.730606,48.424385 
	C236.709793,49.353649 238.403870,49.058849 239.467331,46.081741 
	C241.192017,41.253654 243.161530,36.503860 244.663895,31.609348 
	C245.427551,29.121445 245.534653,27.201384 241.750809,25.758480 
	C225.633698,19.612507 208.832031,16.577747 191.872833,16.321171 
	C177.571487,16.104805 162.871506,17.137701 148.973022,20.334862 
	C114.227600,28.327599 84.513222,45.511398 60.706688,72.618828 
	C48.390858,86.642311 38.736916,102.072601 31.324598,119.133041 
	C22.534279,139.365158 19.026752,160.628540 18.078749,182.431412 
	C17.873140,187.160141 18.486355,191.953384 19.039618,196.679794 
	C20.022169,205.073532 20.631794,213.578217 22.490681,221.788986 
	C27.367664,243.330795 36.345371,263.187042 49.054619,281.268036 
	C58.179249,294.249329 68.926056,305.858063 81.380783,315.643585 
	C93.298592,325.007233 106.231194,332.854156 120.300911,338.773407 
	C138.667694,346.500519 157.785645,350.926208 177.619125,351.879333 
	C185.834900,352.274109 194.186859,351.899261 202.347488,350.859222 
	C212.741959,349.534424 223.187790,347.856873 233.287735,345.131531 
	C255.509979,339.135193 275.370758,328.436127 293.044922,313.544861 
	C309.479065,299.698334 323.244568,283.748993 333.583649,264.888977 
	C345.221954,243.659134 352.158539,220.865860 353.738373,196.824051 
	C354.553406,184.421860 353.007751,171.812653 351.920959,159.349976 
	C350.420624,142.145081 344.579071,126.128113 337.210693,110.640396 
	C331.133453,97.866585 323.305756,86.275017 314.121033,75.488319 
	C305.446869,65.301247 295.880615,56.217964 285.044220,48.372887 
	C282.138489,46.269260 280.215240,46.662064 278.399994,49.195076 
	C275.490540,53.254990 272.774353,57.453045 269.954010,61.577328 
	C268.154816,64.208305 268.672394,66.388428 270.974304,68.469460 
	C278.576355,75.342087 286.520477,81.894958 293.600525,89.273689 
	C306.746094,102.973816 315.688965,119.301743 322.087708,137.156967 
	C328.754303,155.759720 330.694000,174.927139 329.963409,194.495911 
	C329.922516,195.590485 329.362518,196.665680 329.003418,198.676285 
M78.621651,244.036621 
	C77.638458,244.607483 76.666977,245.199722 75.670044,245.745468 
	C71.488457,248.034653 70.852776,250.066315 73.413292,253.910995 
	C81.692726,266.342682 91.042641,277.911224 102.800850,287.206512 
	C123.109787,303.261536 146.237427,313.372711 171.976273,315.749451 
	C190.250626,317.436890 208.652145,316.293732 226.399490,310.247253 
	C250.423645,302.062317 270.879913,288.904724 287.357910,269.307495 
	C304.863342,248.488434 315.109589,224.595978 317.714478,197.853439 
	C319.123932,183.383881 318.729919,168.630753 315.084564,154.152969 
	C306.929718,121.765182 289.805054,95.608330 262.605774,76.086288 
	C242.849136,61.906143 220.660522,54.092186 196.648254,52.166225 
	C176.966354,50.587593 157.623093,53.295185 138.988327,60.432518 
	C124.519409,65.974289 111.363365,73.693748 99.782852,83.848022 
	C84.277283,97.443954 72.030220,113.606903 64.045395,132.759735 
	C58.482220,146.103851 54.797806,160.068008 54.219742,174.449966 
	C53.779667,185.398773 55.457161,196.422211 55.943184,207.423477 
	C56.158733,212.302460 58.919540,212.635513 62.524597,211.756042 
	C67.205780,210.614059 71.772858,208.761169 76.508873,208.163010 
	C80.396423,207.672028 80.445915,205.431000 79.904778,202.993607 
	C77.051598,190.142029 77.514793,177.397171 79.928864,164.510498 
	C84.994446,137.469666 98.353592,115.311592 119.996971,98.756081 
	C143.146301,81.048615 169.438370,73.109894 198.913132,76.897896 
	C212.518860,78.646469 225.312119,82.393936 237.262924,89.033981 
	C259.449280,101.361046 275.825409,118.953400 285.858582,142.412231 
	C295.026733,163.848557 296.614044,186.168259 291.554474,208.481689 
	C285.428833,235.496445 270.249664,257.083832 247.427063,273.062195 
	C232.058807,283.821686 214.983322,290.339783 196.347504,291.880798 
	C177.583435,293.432373 159.220718,290.880310 141.947983,282.935638 
	C126.634506,275.892151 113.434746,265.986938 102.971786,252.642120 
	C99.088234,247.688889 95.271446,242.683334 91.429276,237.708176 
	C87.097878,239.958374 83.243774,241.960602 78.621651,244.036621 
M188.330917,257.000000 
	C183.426620,256.616211 178.400803,256.788818 173.639725,255.749146 
	C156.081940,251.915009 141.109512,243.734329 129.729935,229.324417 
	C114.164467,209.613922 109.920723,187.618408 116.785614,163.818298 
	C123.297844,141.240860 138.382019,125.732948 159.901672,116.650063 
	C173.717194,110.818878 188.356140,110.060867 202.679230,113.508018 
	C218.543198,117.326012 231.964249,125.645699 242.444809,138.748016 
	C252.757919,151.641006 258.337494,166.227081 258.714203,182.364044 
	C258.910370,190.767609 256.409271,199.297363 254.586838,207.652374 
	C253.899765,210.802307 253.594559,212.596664 257.044922,214.097900 
	C261.310669,215.953857 265.230621,218.588699 269.379791,220.732635 
	C273.968384,223.103622 275.431183,222.530045 276.972931,217.802322 
	C282.432129,201.061829 284.536438,184.205643 281.149078,166.562286 
	C275.956146,139.514603 261.812683,118.434875 239.386551,103.314240 
	C218.623260,89.314766 195.218292,85.366280 170.408707,88.938049 
	C150.487747,91.806023 133.705322,100.808365 119.257301,114.353485 
	C109.581238,123.424873 102.392242,134.326965 96.994858,146.529099 
	C88.882034,164.870132 87.961617,184.097565 91.356812,203.206940 
	C94.914391,223.230225 104.910629,240.365036 119.917358,254.518646 
	C137.830566,271.413513 159.231323,279.838013 183.464325,280.787018 
	C191.980453,281.120544 200.717438,279.604187 209.134094,277.868347 
	C224.758392,274.646057 238.324341,267.065277 250.148026,256.352692 
	C252.636673,254.097900 252.819794,252.038467 250.243942,249.738007 
	C246.314743,246.228836 242.626633,242.418045 238.457764,239.230133 
	C237.348373,238.381805 234.314438,238.629990 233.087372,239.574356 
	C220.104782,249.565872 205.614853,255.573959 188.330917,257.000000 
M842.984985,139.018234 
	C845.382324,138.678818 847.772217,138.120834 850.178345,138.038208 
	C860.075928,137.698288 869.421448,140.039993 878.461792,143.962845 
	C879.615845,144.463608 882.189209,144.338135 882.509827,143.700485 
	C885.300537,138.151489 887.727234,132.419388 890.343323,126.559814 
	C880.146912,121.683891 869.949585,118.959595 859.010864,117.735336 
	C847.155518,116.408493 836.162964,117.442711 825.518433,122.885246 
	C807.297974,132.201340 804.328613,154.867630 814.165955,169.304840 
	C818.926086,176.290878 826.662415,179.375229 834.415466,181.979065 
	C844.418091,185.338501 854.475830,188.533829 864.472900,191.909363 
	C868.406921,193.237732 869.039917,196.526825 869.036377,200.213379 
	C869.032715,203.995407 868.334534,206.857269 864.604492,209.177170 
	C855.643982,214.750015 846.459229,213.130554 837.394226,210.594223 
	C830.665039,208.711441 824.275940,205.613281 817.406250,202.927856 
	C814.618225,207.692856 812.265137,212.900482 808.823975,217.246567 
	C805.677734,221.220215 807.516968,222.401031 810.813232,224.009720 
	C827.062744,231.940125 844.271362,234.842392 862.095764,232.798065 
	C867.973938,232.123871 873.992859,229.858582 879.225281,226.999344 
	C888.177429,222.107468 893.131409,214.280716 894.208313,203.707245 
	C895.178894,194.177994 893.645203,185.724869 887.082886,178.658875 
	C880.321960,171.379059 871.108704,168.703049 861.952209,165.971359 
	C854.597839,163.777313 847.188171,161.663849 840.058594,158.863922 
	C836.321045,157.396088 833.763733,154.435089 833.880493,149.554688 
	C834.021362,143.669128 837.965637,141.504837 842.984985,139.018234 
M688.425659,212.941208 
	C692.421143,219.878830 697.789612,225.426300 705.019836,228.988800 
	C715.617004,234.210251 726.899353,235.137543 738.214722,232.762970 
	C746.763916,230.968872 755.178589,228.161621 762.470154,222.004013 
	C759.596436,217.677292 756.566162,213.678619 754.187256,209.324127 
	C752.735840,206.667450 751.589294,206.880554 749.193970,207.892578 
	C744.357971,209.935776 739.372742,211.677994 734.346741,213.208496 
	C723.760681,216.432190 710.056213,211.158173 708.609741,197.000000 
	C725.436523,197.000000 742.253296,197.006805 759.070129,196.991898 
	C761.329590,196.989899 764.018555,197.613815 764.005737,193.887817 
	C763.980713,186.566971 765.050659,179.054962 763.764038,171.967621 
	C761.565796,159.858719 755.150818,150.481125 742.792297,145.858795 
	C733.553101,142.403152 724.238220,142.072800 714.950989,144.157120 
	C705.037109,146.382111 696.712952,151.685364 690.978882,160.367050 
	C679.943420,177.075500 680.899902,194.512802 688.425659,212.941208 
M1057.710938,147.027344 
	C1044.898438,153.605743 1037.209961,163.710464 1034.845215,178.189407 
	C1032.719116,191.206055 1033.917725,203.681656 1040.611816,214.891495 
	C1048.515869,228.127609 1061.537109,233.506912 1076.414551,233.876740 
	C1088.914429,234.187454 1100.656494,230.613754 1111.242188,223.843582 
	C1112.076538,223.309937 1112.465088,220.641037 1111.894775,219.608780 
	C1109.873169,215.949799 1107.182007,212.665924 1105.068848,209.050400 
	C1103.733521,206.765854 1102.668701,206.853226 1100.369019,207.849396 
	C1095.553955,209.935104 1090.561523,211.747177 1085.484497,213.065109 
	C1071.917236,216.586929 1062.933228,210.961182 1059.412720,197.000000 
	C1074.930664,197.000000 1090.417603,197.000000 1105.904541,197.000000 
	C1113.810303,197.000000 1114.508179,197.095718 1115.517700,189.734802 
	C1117.400146,176.009644 1115.104614,162.741257 1104.928711,152.682190 
	C1093.329834,141.216721 1072.670654,140.214539 1057.710938,147.027344 
M1126.997925,208.380936 
	C1131.564697,219.592026 1139.147949,227.477295 1151.025269,231.092255 
	C1158.920532,233.495270 1166.653442,234.353317 1174.963135,233.174179 
	C1185.387329,231.694992 1194.597778,227.996979 1203.201538,222.155319 
	C1199.512207,216.768036 1196.063477,211.731979 1192.981689,207.231781 
	C1186.427002,209.557098 1180.721558,212.468811 1174.690186,213.532272 
	C1162.897583,215.611542 1151.311401,212.257187 1149.129517,197.080826 
	C1167.274414,197.080826 1185.376587,197.080826 1203.721558,197.080826 
	C1205.743530,187.217773 1206.204956,177.477036 1203.484375,168.161377 
	C1199.363525,154.050522 1189.371460,145.546326 1174.821289,143.449356 
	C1159.162476,141.192612 1144.387085,144.314911 1133.953979,156.872253 
	C1121.438232,171.936020 1120.447998,189.443573 1126.997925,208.380936 
M499.000031,204.701355 
	C497.542175,210.549515 498.105499,216.236984 501.046844,221.460403 
	C507.734772,233.337219 521.998657,235.586731 534.230042,232.050522 
	C540.360535,230.278122 545.896973,226.451050 551.743774,223.532425 
	C555.962769,230.562790 568.153992,233.194534 578.833923,231.510757 
	C578.833923,226.097031 578.833923,220.656799 578.833923,215.228378 
	C573.699402,214.613800 571.873413,211.732056 571.942627,206.821579 
	C572.116333,194.499268 572.207153,182.168320 571.935852,169.849548 
	C571.710388,159.612106 565.351501,149.298553 554.799194,145.790176 
	C543.130310,141.910568 531.713257,142.488754 520.268677,145.451126 
	C513.309875,147.252365 506.633667,150.145370 499.711365,152.590012 
	C503.257507,159.524475 506.246155,165.368774 509.301849,171.344208 
	C510.922729,170.514053 512.017761,169.833893 513.197510,169.368134 
	C521.442932,166.112885 529.449890,162.022202 538.792664,162.950607 
	C542.947998,163.363510 546.104126,164.812485 547.011292,169.144653 
	C547.665649,172.269135 547.900757,175.481369 548.309692,178.555893 
	C546.073364,179.162216 544.548279,179.660950 542.986938,179.984726 
	C534.798462,181.682693 526.394348,182.680252 518.460205,185.176697 
	C509.200317,188.090332 501.833221,193.828445 499.000031,204.701355 
M617.000000,183.520691 
	C617.000000,181.855759 617.000000,180.190811 617.000000,178.525879 
	C617.000000,169.685379 619.987366,165.517288 628.719788,162.822479 
	C638.295227,159.867538 645.928467,163.109039 645.056946,174.342728 
	C644.710266,178.811157 645.000000,183.328964 645.000000,187.824280 
	C645.000000,202.426498 645.000000,217.028717 645.000000,231.790314 
	C653.491333,231.790314 661.556580,231.790314 669.002380,231.790314 
	C669.002380,209.731628 669.709778,187.858719 668.793396,166.054062 
	C667.960754,146.241745 651.590576,140.459000 635.926453,143.833893 
	C628.888916,145.350189 622.433167,149.566544 615.694824,152.565964 
	C615.694824,150.616608 615.694824,147.869919 615.694824,145.325562 
	C607.934937,145.325562 600.534546,145.325562 593.299805,145.325562 
	C593.299805,174.369431 593.299805,203.086945 593.299805,231.702820 
	C601.337280,231.702820 609.071655,231.702820 617.000000,231.702820 
	C617.000000,215.775726 617.000000,200.144989 617.000000,183.520691 
M478.376556,119.000000 
	C471.623688,119.000000 464.870819,119.000000 458.000000,119.000000 
	C458.000000,121.479370 458.000000,123.301231 458.000000,125.123093 
	C458.000000,148.773804 457.915131,172.424988 458.051544,196.074921 
	C458.092682,203.210526 452.000854,211.760330 443.028290,211.163513 
	C437.806763,210.816193 434.037384,208.816467 430.681732,205.214966 
	C429.250336,203.678680 427.922577,201.644531 425.425629,204.048203 
	C420.700867,208.596542 415.849518,213.013367 410.278717,218.204178 
	C414.465332,221.522522 418.092041,225.020630 422.287140,227.591156 
	C430.772369,232.790482 440.121826,233.633636 450.037445,233.160370 
	C469.797028,232.217270 482.264496,218.132370 482.792480,200.799957 
	C483.588348,174.675186 482.944672,148.507965 483.074127,122.359581 
	C483.089294,119.302223 481.954529,118.608521 478.376556,119.000000 
M1211.740723,145.060669 
	C1211.391968,150.904099 1211.043335,156.747528 1210.669189,163.017456 
	C1215.810181,163.017456 1220.226074,163.017456 1225.000000,163.017456 
	C1225.000000,165.034760 1225.000000,166.658508 1225.000000,168.282242 
	C1225.000000,182.605133 1224.858398,196.929993 1225.055786,211.250168 
	C1225.165527,219.210129 1229.942261,230.515137 1241.187622,231.953629 
	C1247.338867,232.740509 1253.730103,233.584579 1259.776367,232.729034 
	C1266.144897,231.827911 1272.535767,229.517166 1277.252319,224.045654 
	C1274.221191,219.220291 1271.269653,214.521698 1268.337891,209.854706 
	C1266.370239,210.800491 1264.824585,211.668839 1263.189453,212.308228 
	C1254.628784,215.655716 1249.380127,213.197311 1249.146484,206.190994 
	C1248.671021,191.932541 1249.004395,177.647141 1249.004395,162.976547 
	C1255.484741,162.976547 1261.561646,162.976547 1267.786621,162.976547 
	C1267.786621,156.840179 1267.786621,151.105148 1267.786621,144.971115 
	C1261.509888,144.971115 1255.432861,144.971115 1248.969238,144.971115 
	C1248.969238,137.840363 1248.969238,131.095718 1248.969238,124.215332 
	C1240.834351,124.215332 1233.100464,124.215332 1224.968018,124.215332 
	C1224.968018,131.161758 1224.968018,137.906860 1224.968018,145.004379 
	C1220.620483,145.004379 1216.662598,145.004379 1211.740723,145.060669 
M946.500000,163.000000 
	C949.602661,163.000000 952.705261,163.000000 955.710938,163.000000 
	C955.710938,156.683258 955.710938,150.948318 955.710938,144.820251 
	C949.352600,144.820251 943.278503,144.820251 936.819580,144.820251 
	C936.819580,137.685013 936.819580,130.945404 936.819580,124.289040 
	C928.682007,124.289040 920.946655,124.289040 912.821777,124.289040 
	C912.821777,131.314377 912.821777,138.054871 912.821777,145.181915 
	C908.018250,145.181915 903.604309,145.181915 899.290771,145.181915 
	C899.290771,151.321457 899.290771,157.058029 899.290771,163.187042 
	C903.986877,163.187042 908.400452,163.187042 913.000000,163.187042 
	C913.000000,179.385223 912.964661,195.184998 913.012146,210.984543 
	C913.044861,221.879227 918.794678,229.731461 929.439453,231.888138 
	C935.466492,233.109207 942.055847,233.817978 947.980347,232.657181 
	C954.126099,231.453033 960.924377,229.835571 965.186157,224.021942 
	C962.135132,219.168365 959.242676,214.567017 956.287781,209.866364 
	C954.449768,210.786301 952.801392,211.816528 951.015320,212.470825 
	C941.847473,215.829224 936.518250,212.681641 936.973816,202.955353 
	C937.137207,199.465866 937.000000,195.962296 937.000000,192.465164 
	C937.000000,182.709137 937.000000,172.953110 937.000000,163.000000 
	C940.232178,163.000000 942.876648,163.000000 946.500000,163.000000 
M1019.718079,143.000000 
	C1015.412354,144.563049 1010.890808,145.714905 1006.872070,147.824600 
	C1003.877014,149.396957 1001.532349,152.208206 998.635132,154.693176 
	C997.916687,150.895615 997.380127,148.059769 996.847046,145.241974 
	C989.481323,145.241974 982.395569,145.241974 975.229675,145.241974 
	C975.229675,174.210297 975.229675,202.936096 975.229675,231.769257 
	C983.195862,231.769257 990.930664,231.769257 999.000000,231.769257 
	C999.000000,215.754242 998.998413,199.967987 999.000610,184.181732 
	C999.001892,174.754227 1008.664307,164.970993 1018.124573,165.046478 
	C1021.973816,165.077179 1025.818848,165.624237 1029.597900,165.930862 
	C1031.127808,158.530945 1032.579834,151.507843 1034.078613,144.258835 
	C1031.722168,143.797394 1029.701416,143.224609 1027.646240,143.046280 
	C1025.331787,142.845444 1022.986389,143.000015 1019.718079,143.000000 
z"/>
<path fill="#040707" opacity="1.000000" stroke="none" 
	d="
M329.023773,198.213074 
	C329.362518,196.665680 329.922516,195.590485 329.963409,194.495911 
	C330.694000,174.927139 328.754303,155.759720 322.087708,137.156967 
	C315.688965,119.301743 306.746094,102.973816 293.600525,89.273689 
	C286.520477,81.894958 278.576355,75.342087 270.974304,68.469460 
	C268.672394,66.388428 268.154816,64.208305 269.954010,61.577328 
	C272.774353,57.453045 275.490540,53.254990 278.399994,49.195076 
	C280.215240,46.662064 282.138489,46.269260 285.044220,48.372887 
	C295.880615,56.217964 305.446869,65.301247 314.121033,75.488319 
	C323.305756,86.275017 331.133453,97.866585 337.210693,110.640396 
	C344.579071,126.128113 350.420624,142.145081 351.920959,159.349976 
	C353.007751,171.812653 354.553406,184.421860 353.738373,196.824051 
	C352.158539,220.865860 345.221954,243.659134 333.583649,264.888977 
	C323.244568,283.748993 309.479065,299.698334 293.044922,313.544861 
	C275.370758,328.436127 255.509979,339.135193 233.287735,345.131531 
	C223.187790,347.856873 212.741959,349.534424 202.347488,350.859222 
	C194.186859,351.899261 185.834900,352.274109 177.619125,351.879333 
	C157.785645,350.926208 138.667694,346.500519 120.300911,338.773407 
	C106.231194,332.854156 93.298592,325.007233 81.380783,315.643585 
	C68.926056,305.858063 58.179249,294.249329 49.054619,281.268036 
	C36.345371,263.187042 27.367664,243.330795 22.490681,221.788986 
	C20.631794,213.578217 20.022169,205.073532 19.039618,196.679794 
	C18.486355,191.953384 17.873140,187.160141 18.078749,182.431412 
	C19.026752,160.628540 22.534279,139.365158 31.324598,119.133041 
	C38.736916,102.072601 48.390858,86.642311 60.706688,72.618828 
	C84.513222,45.511398 114.227600,28.327599 148.973022,20.334862 
	C162.871506,17.137701 177.571487,16.104805 191.872833,16.321171 
	C208.832031,16.577747 225.633698,19.612507 241.750809,25.758480 
	C245.534653,27.201384 245.427551,29.121445 244.663895,31.609348 
	C243.161530,36.503860 241.192017,41.253654 239.467331,46.081741 
	C238.403870,49.058849 236.709793,49.353649 233.730606,48.424385 
	C221.520844,44.615940 209.184952,41.768051 196.267319,40.844185 
	C160.611710,38.294094 128.842636,48.057198 100.309364,69.189636 
	C81.337097,83.240967 66.612038,100.907707 56.486355,122.175797 
	C50.111980,135.564606 45.193359,149.540924 43.981117,164.536469 
	C43.361012,172.207321 41.795868,179.912506 42.153202,187.532043 
	C43.546043,217.231888 52.370987,244.452515 70.092010,268.700836 
	C86.049652,290.536224 106.540916,306.474457 131.270782,316.929657 
	C144.055908,322.334930 157.392517,326.198151 171.411804,326.997986 
	C177.495148,327.345062 183.584686,328.016541 189.663162,327.933838 
	C207.335022,327.693512 224.220596,323.780212 240.620682,317.118408 
	C260.744751,308.943939 278.052246,296.773773 292.523376,280.821381 
	C310.191589,261.344727 322.134735,238.717438 326.975861,212.648895 
	C327.834473,208.025299 328.336670,203.335510 329.023773,198.213074 
z"/>
<path fill="#040707" opacity="1.000000" stroke="none" 
	d="
M79.005661,243.999725 
	C83.243774,241.960602 87.097878,239.958374 91.429276,237.708176 
	C95.271446,242.683334 99.088234,247.688889 102.971786,252.642120 
	C113.434746,265.986938 126.634506,275.892151 141.947983,282.935638 
	C159.220718,290.880310 177.583435,293.432373 196.347504,291.880798 
	C214.983322,290.339783 232.058807,283.821686 247.427063,273.062195 
	C270.249664,257.083832 285.428833,235.496445 291.554474,208.481689 
	C296.614044,186.168259 295.026733,163.848557 285.858582,142.412231 
	C275.825409,118.953400 259.449280,101.361046 237.262924,89.033981 
	C225.312119,82.393936 212.518860,78.646469 198.913132,76.897896 
	C169.438370,73.109894 143.146301,81.048615 119.996971,98.756081 
	C98.353592,115.311592 84.994446,137.469666 79.928864,164.510498 
	C77.514793,177.397171 77.051598,190.142029 79.904778,202.993607 
	C80.445915,205.431000 80.396423,207.672028 76.508873,208.163010 
	C71.772858,208.761169 67.205780,210.614059 62.524597,211.756042 
	C58.919540,212.635513 56.158733,212.302460 55.943184,207.423477 
	C55.457161,196.422211 53.779667,185.398773 54.219742,174.449966 
	C54.797806,160.068008 58.482220,146.103851 64.045395,132.759735 
	C72.030220,113.606903 84.277283,97.443954 99.782852,83.848022 
	C111.363365,73.693748 124.519409,65.974289 138.988327,60.432518 
	C157.623093,53.295185 176.966354,50.587593 196.648254,52.166225 
	C220.660522,54.092186 242.849136,61.906143 262.605774,76.086288 
	C289.805054,95.608330 306.929718,121.765182 315.084564,154.152969 
	C318.729919,168.630753 319.123932,183.383881 317.714478,197.853439 
	C315.109589,224.595978 304.863342,248.488434 287.357910,269.307495 
	C270.879913,288.904724 250.423645,302.062317 226.399490,310.247253 
	C208.652145,316.293732 190.250626,317.436890 171.976273,315.749451 
	C146.237427,313.372711 123.109787,303.261536 102.800850,287.206512 
	C91.042641,277.911224 81.692726,266.342682 73.413292,253.910995 
	C70.852776,250.066315 71.488457,248.034653 75.670044,245.745468 
	C76.666977,245.199722 77.638458,244.607483 79.005661,243.999725 
z"/>
<path fill="#040707" opacity="1.000000" stroke="none" 
	d="
M188.797150,256.999939 
	C205.614853,255.573959 220.104782,249.565872 233.087372,239.574356 
	C234.314438,238.629990 237.348373,238.381805 238.457764,239.230133 
	C242.626633,242.418045 246.314743,246.228836 250.243942,249.738007 
	C252.819794,252.038467 252.636673,254.097900 250.148026,256.352692 
	C238.324341,267.065277 224.758392,274.646057 209.134094,277.868347 
	C200.717438,279.604187 191.980453,281.120544 183.464325,280.787018 
	C159.231323,279.838013 137.830566,271.413513 119.917358,254.518646 
	C104.910629,240.365036 94.914391,223.230225 91.356812,203.206940 
	C87.961617,184.097565 88.882034,164.870132 96.994858,146.529099 
	C102.392242,134.326965 109.581238,123.424873 119.257301,114.353485 
	C133.705322,100.808365 150.487747,91.806023 170.408707,88.938049 
	C195.218292,85.366280 218.623260,89.314766 239.386551,103.314240 
	C261.812683,118.434875 275.956146,139.514603 281.149078,166.562286 
	C284.536438,184.205643 282.432129,201.061829 276.972931,217.802322 
	C275.431183,222.530045 273.968384,223.103622 269.379791,220.732635 
	C265.230621,218.588699 261.310669,215.953857 257.044922,214.097900 
	C253.594559,212.596664 253.899765,210.802307 254.586838,207.652374 
	C256.409271,199.297363 258.910370,190.767609 258.714203,182.364044 
	C258.337494,166.227081 252.757919,151.641006 242.444809,138.748016 
	C231.964249,125.645699 218.543198,117.326012 202.679230,113.508018 
	C188.356140,110.060867 173.717194,110.818878 159.901672,116.650063 
	C138.382019,125.732948 123.297844,141.240860 116.785614,163.818298 
	C109.920723,187.618408 114.164467,209.613922 129.729935,229.324417 
	C141.109512,243.734329 156.081940,251.915009 173.639725,255.749146 
	C178.400803,256.788818 183.426620,256.616211 188.797150,256.999939 
z"/>
<path fill="#040707" opacity="1.000000" stroke="none" 
	d="
M842.592407,139.145966 
	C837.965637,141.504837 834.021362,143.669128 833.880493,149.554688 
	C833.763733,154.435089 836.321045,157.396088 840.058594,158.863922 
	C847.188171,161.663849 854.597839,163.777313 861.952209,165.971359 
	C871.108704,168.703049 880.321960,171.379059 887.082886,178.658875 
	C893.645203,185.724869 895.178894,194.177994 894.208313,203.707245 
	C893.131409,214.280716 888.177429,222.107468 879.225281,226.999344 
	C873.992859,229.858582 867.973938,232.123871 862.095764,232.798065 
	C844.271362,234.842392 827.062744,231.940125 810.813232,224.009720 
	C807.516968,222.401031 805.677734,221.220215 808.823975,217.246567 
	C812.265137,212.900482 814.618225,207.692856 817.406250,202.927856 
	C824.275940,205.613281 830.665039,208.711441 837.394226,210.594223 
	C846.459229,213.130554 855.643982,214.750015 864.604492,209.177170 
	C868.334534,206.857269 869.032715,203.995407 869.036377,200.213379 
	C869.039917,196.526825 868.406921,193.237732 864.472900,191.909363 
	C854.475830,188.533829 844.418091,185.338501 834.415466,181.979065 
	C826.662415,179.375229 818.926086,176.290878 814.165955,169.304840 
	C804.328613,154.867630 807.297974,132.201340 825.518433,122.885246 
	C836.162964,117.442711 847.155518,116.408493 859.010864,117.735336 
	C869.949585,118.959595 880.146912,121.683891 890.343323,126.559814 
	C887.727234,132.419388 885.300537,138.151489 882.509827,143.700485 
	C882.189209,144.338135 879.615845,144.463608 878.461792,143.962845 
	C869.421448,140.039993 860.075928,137.698288 850.178345,138.038208 
	C847.772217,138.120834 845.382324,138.678818 842.592407,139.145966 
z"/>
<path fill="#040707" opacity="1.000000" stroke="none" 
	d="
M688.226196,212.609802 
	C680.899902,194.512802 679.943420,177.075500 690.978882,160.367050 
	C696.712952,151.685364 705.037109,146.382111 714.950989,144.157120 
	C724.238220,142.072800 733.553101,142.403152 742.792297,145.858795 
	C755.150818,150.481125 761.565796,159.858719 763.764038,171.967621 
	C765.050659,179.054962 763.980713,186.566971 764.005737,193.887817 
	C764.018555,197.613815 761.329590,196.989899 759.070129,196.991898 
	C742.253296,197.006805 725.436523,197.000000 708.609741,197.000000 
	C710.056213,211.158173 723.760681,216.432190 734.346741,213.208496 
	C739.372742,211.677994 744.357971,209.935776 749.193970,207.892578 
	C751.589294,206.880554 752.735840,206.667450 754.187256,209.324127 
	C756.566162,213.678619 759.596436,217.677292 762.470154,222.004013 
	C755.178589,228.161621 746.763916,230.968872 738.214722,232.762970 
	C726.899353,235.137543 715.617004,234.210251 705.019836,228.988800 
	C697.789612,225.426300 692.421143,219.878830 688.226196,212.609802 
M723.935486,161.001099 
	C714.304382,163.697266 710.158936,169.508957 708.820435,178.684540 
	C719.825317,178.684540 730.863708,178.684540 741.954956,178.684540 
	C738.965637,163.778961 736.232483,161.001587 723.935486,161.001099 
z"/>
<path fill="#040707" opacity="1.000000" stroke="none" 
	d="
M1058.104004,146.988586 
	C1072.670654,140.214539 1093.329834,141.216721 1104.928711,152.682190 
	C1115.104614,162.741257 1117.400146,176.009644 1115.517700,189.734802 
	C1114.508179,197.095718 1113.810303,197.000000 1105.904541,197.000000 
	C1090.417603,197.000000 1074.930664,197.000000 1059.412720,197.000000 
	C1062.933228,210.961182 1071.917236,216.586929 1085.484497,213.065109 
	C1090.561523,211.747177 1095.553955,209.935104 1100.369019,207.849396 
	C1102.668701,206.853226 1103.733521,206.765854 1105.068848,209.050400 
	C1107.182007,212.665924 1109.873169,215.949799 1111.894775,219.608780 
	C1112.465088,220.641037 1112.076538,223.309937 1111.242188,223.843582 
	C1100.656494,230.613754 1088.914429,234.187454 1076.414551,233.876740 
	C1061.537109,233.506912 1048.515869,228.127609 1040.611816,214.891495 
	C1033.917725,203.681656 1032.719116,191.206055 1034.845215,178.189407 
	C1037.209961,163.710464 1044.898438,153.605743 1058.104004,146.988586 
M1074.937378,161.001083 
	C1065.312012,163.694824 1061.164185,169.495102 1059.818726,178.685242 
	C1070.824097,178.685242 1081.862915,178.685242 1092.932983,178.685242 
	C1090.812134,162.581879 1085.210938,160.893799 1074.937378,161.001083 
z"/>
<path fill="#040707" opacity="1.000000" stroke="none" 
	d="
M1126.974365,207.975586 
	C1120.447998,189.443573 1121.438232,171.936020 1133.953979,156.872253 
	C1144.387085,144.314911 1159.162476,141.192612 1174.821289,143.449356 
	C1189.371460,145.546326 1199.363525,154.050522 1203.484375,168.161377 
	C1206.204956,177.477036 1205.743530,187.217773 1203.721558,197.080826 
	C1185.376587,197.080826 1167.274414,197.080826 1149.129517,197.080826 
	C1151.311401,212.257187 1162.897583,215.611542 1174.690186,213.532272 
	C1180.721558,212.468811 1186.427002,209.557098 1192.981689,207.231781 
	C1196.063477,211.731979 1199.512207,216.768036 1203.201538,222.155319 
	C1194.597778,227.996979 1185.387329,231.694992 1174.963135,233.174179 
	C1166.653442,234.353317 1158.920532,233.495270 1151.025269,231.092255 
	C1139.147949,227.477295 1131.564697,219.592026 1126.974365,207.975586 
M1170.481323,179.000000 
	C1174.260376,179.000000 1178.039429,179.000000 1181.770264,179.000000 
	C1182.634155,168.518417 1176.230225,161.817795 1170.090942,161.033463 
	C1159.515625,159.682373 1150.823853,167.074249 1149.177734,178.614487 
	C1149.476196,178.735291 1149.774048,178.960297 1150.072998,178.961578 
	C1156.544678,178.989426 1163.016479,178.992310 1170.481323,179.000000 
z"/>
<path fill="#040707" opacity="1.000000" stroke="none" 
	d="
M499.000610,204.278275 
	C501.833221,193.828445 509.200317,188.090332 518.460205,185.176697 
	C526.394348,182.680252 534.798462,181.682693 542.986938,179.984726 
	C544.548279,179.660950 546.073364,179.162216 548.309692,178.555893 
	C547.900757,175.481369 547.665649,172.269135 547.011292,169.144653 
	C546.104126,164.812485 542.947998,163.363510 538.792664,162.950607 
	C529.449890,162.022202 521.442932,166.112885 513.197510,169.368134 
	C512.017761,169.833893 510.922729,170.514053 509.301849,171.344208 
	C506.246155,165.368774 503.257507,159.524475 499.711365,152.590012 
	C506.633667,150.145370 513.309875,147.252365 520.268677,145.451126 
	C531.713257,142.488754 543.130310,141.910568 554.799194,145.790176 
	C565.351501,149.298553 571.710388,159.612106 571.935852,169.849548 
	C572.207153,182.168320 572.116333,194.499268 571.942627,206.821579 
	C571.873413,211.732056 573.699402,214.613800 578.833923,215.228378 
	C578.833923,220.656799 578.833923,226.097031 578.833923,231.510757 
	C568.153992,233.194534 555.962769,230.562790 551.743774,223.532425 
	C545.896973,226.451050 540.360535,230.278122 534.230042,232.050522 
	C521.998657,235.586731 507.734772,233.337219 501.046844,221.460403 
	C498.105499,216.236984 497.542175,210.549515 499.000610,204.278275 
M523.001221,205.848068 
	C523.677551,208.066513 523.806030,210.707855 525.131653,212.425095 
	C529.320007,217.850876 535.707336,216.309494 542.574097,212.758774 
	C544.702942,211.657990 547.425964,209.540192 547.747803,207.544647 
	C548.508972,202.824402 547.992310,197.898087 547.992310,192.876587 
	C538.037170,194.813812 527.888184,194.589554 523.001221,205.848068 
z"/>
<path fill="#040707" opacity="1.000000" stroke="none" 
	d="
M617.000000,184.017471 
	C617.000000,200.144989 617.000000,215.775726 617.000000,231.702820 
	C609.071655,231.702820 601.337280,231.702820 593.299805,231.702820 
	C593.299805,203.086945 593.299805,174.369431 593.299805,145.325562 
	C600.534546,145.325562 607.934937,145.325562 615.694824,145.325562 
	C615.694824,147.869919 615.694824,150.616608 615.694824,152.565964 
	C622.433167,149.566544 628.888916,145.350189 635.926453,143.833893 
	C651.590576,140.459000 667.960754,146.241745 668.793396,166.054062 
	C669.709778,187.858719 669.002380,209.731628 669.002380,231.790314 
	C661.556580,231.790314 653.491333,231.790314 645.000000,231.790314 
	C645.000000,217.028717 645.000000,202.426498 645.000000,187.824280 
	C645.000000,183.328964 644.710266,178.811157 645.056946,174.342728 
	C645.928467,163.109039 638.295227,159.867538 628.719788,162.822479 
	C619.987366,165.517288 617.000000,169.685379 617.000000,178.525879 
	C617.000000,180.190811 617.000000,181.855759 617.000000,184.017471 
z"/>
<path fill="#040707" opacity="1.000000" stroke="none" 
	d="
M478.861877,119.000008 
	C481.954529,118.608521 483.089294,119.302223 483.074127,122.359581 
	C482.944672,148.507965 483.588348,174.675186 482.792480,200.799957 
	C482.264496,218.132370 469.797028,232.217270 450.037445,233.160370 
	C440.121826,233.633636 430.772369,232.790482 422.287140,227.591156 
	C418.092041,225.020630 414.465332,221.522522 410.278717,218.204178 
	C415.849518,213.013367 420.700867,208.596542 425.425629,204.048203 
	C427.922577,201.644531 429.250336,203.678680 430.681732,205.214966 
	C434.037384,208.816467 437.806763,210.816193 443.028290,211.163513 
	C452.000854,211.760330 458.092682,203.210526 458.051544,196.074921 
	C457.915131,172.424988 458.000000,148.773804 458.000000,125.123093 
	C458.000000,123.301231 458.000000,121.479370 458.000000,119.000000 
	C464.870819,119.000000 471.623688,119.000000 478.861877,119.000008 
z"/>
<path fill="#040707" opacity="1.000000" stroke="none" 
	d="
M1212.222656,145.032532 
	C1216.662598,145.004379 1220.620483,145.004379 1224.968018,145.004379 
	C1224.968018,137.906860 1224.968018,131.161758 1224.968018,124.215332 
	C1233.100464,124.215332 1240.834351,124.215332 1248.969238,124.215332 
	C1248.969238,131.095718 1248.969238,137.840363 1248.969238,144.971115 
	C1255.432861,144.971115 1261.509888,144.971115 1267.786621,144.971115 
	C1267.786621,151.105148 1267.786621,156.840179 1267.786621,162.976547 
	C1261.561646,162.976547 1255.484741,162.976547 1249.004395,162.976547 
	C1249.004395,177.647141 1248.671021,191.932541 1249.146484,206.190994 
	C1249.380127,213.197311 1254.628784,215.655716 1263.189453,212.308228 
	C1264.824585,211.668839 1266.370239,210.800491 1268.337891,209.854706 
	C1271.269653,214.521698 1274.221191,219.220291 1277.252319,224.045654 
	C1272.535767,229.517166 1266.144897,231.827911 1259.776367,232.729034 
	C1253.730103,233.584579 1247.338867,232.740509 1241.187622,231.953629 
	C1229.942261,230.515137 1225.165527,219.210129 1225.055786,211.250168 
	C1224.858398,196.929993 1225.000000,182.605133 1225.000000,168.282242 
	C1225.000000,166.658508 1225.000000,165.034760 1225.000000,163.017456 
	C1220.226074,163.017456 1215.810181,163.017456 1210.669189,163.017456 
	C1211.043335,156.747528 1211.391968,150.904099 1212.222656,145.032532 
z"/>
<path fill="#040707" opacity="1.000000" stroke="none" 
	d="
M946.010559,163.000000 
	C942.876648,163.000000 940.232178,163.000000 937.000000,163.000000 
	C937.000000,172.953110 937.000000,182.709137 937.000000,192.465164 
	C937.000000,195.962296 937.137207,199.465866 936.973816,202.955353 
	C936.518250,212.681641 941.847473,215.829224 951.015320,212.470825 
	C952.801392,211.816528 954.449768,210.786301 956.287781,209.866364 
	C959.242676,214.567017 962.135132,219.168365 965.186157,224.021942 
	C960.924377,229.835571 954.126099,231.453033 947.980347,232.657181 
	C942.055847,233.817978 935.466492,233.109207 929.439453,231.888138 
	C918.794678,229.731461 913.044861,221.879227 913.012146,210.984543 
	C912.964661,195.184998 913.000000,179.385223 913.000000,163.187042 
	C908.400452,163.187042 903.986877,163.187042 899.290771,163.187042 
	C899.290771,157.058029 899.290771,151.321457 899.290771,145.181915 
	C903.604309,145.181915 908.018250,145.181915 912.821777,145.181915 
	C912.821777,138.054871 912.821777,131.314377 912.821777,124.289040 
	C920.946655,124.289040 928.682007,124.289040 936.819580,124.289040 
	C936.819580,130.945404 936.819580,137.685013 936.819580,144.820251 
	C943.278503,144.820251 949.352600,144.820251 955.710938,144.820251 
	C955.710938,150.948318 955.710938,156.683258 955.710938,163.000000 
	C952.705261,163.000000 949.602661,163.000000 946.010559,163.000000 
z"/>
<path fill="#040707" opacity="1.000000" stroke="none" 
	d="
M1020.186279,143.000000 
	C1022.986389,143.000015 1025.331787,142.845444 1027.646240,143.046280 
	C1029.701416,143.224609 1031.722168,143.797394 1034.078613,144.258835 
	C1032.579834,151.507843 1031.127808,158.530945 1029.597900,165.930862 
	C1025.818848,165.624237 1021.973816,165.077179 1018.124573,165.046478 
	C1008.664307,164.970993 999.001892,174.754227 999.000610,184.181732 
	C998.998413,199.967987 999.000000,215.754242 999.000000,231.769257 
	C990.930664,231.769257 983.195862,231.769257 975.229675,231.769257 
	C975.229675,202.936096 975.229675,174.210297 975.229675,145.241974 
	C982.395569,145.241974 989.481323,145.241974 996.847046,145.241974 
	C997.380127,148.059769 997.916687,150.895615 998.635132,154.693176 
	C1001.532349,152.208206 1003.877014,149.396957 1006.872070,147.824600 
	C1010.890808,145.714905 1015.412354,144.563049 1020.186279,143.000000 
z"/>
<path fill="#FFFFFF" opacity="1.000000" stroke="none" 
	d="
M724.367432,161.000580 
	C736.232483,161.001587 738.965637,163.778961 741.954956,178.684540 
	C730.863708,178.684540 719.825317,178.684540 708.820435,178.684540 
	C710.158936,169.508957 714.304382,163.697266 724.367432,161.000580 
z"/>
<path fill="#FFFFFF" opacity="1.000000" stroke="none" 
	d="
M1075.369629,161.000580 
	C1085.210938,160.893799 1090.812134,162.581879 1092.932983,178.685242 
	C1081.862915,178.685242 1070.824097,178.685242 1059.818726,178.685242 
	C1061.164185,169.495102 1065.312012,163.694824 1075.369629,161.000580 
z"/>
<path fill="#FFFFFF" opacity="1.000000" stroke="none" 
	d="
M1169.984863,179.000000 
	C1163.016479,178.992310 1156.544678,178.989426 1150.072998,178.961578 
	C1149.774048,178.960297 1149.476196,178.735291 1149.178711,178.612289 
	C1150.823853,167.074249 1159.515625,159.682373 1170.090942,161.033463 
	C1176.230225,161.817795 1182.634155,168.518417 1181.770264,179.000000 
	C1178.039429,179.000000 1174.260376,179.000000 1169.984863,179.000000 
z"/>
<path fill="#FFFFFF" opacity="1.000000" stroke="none" 
	d="
M523.008423,205.443436 
	C527.888184,194.589554 538.037170,194.813812 547.992310,192.876587 
	C547.992310,197.898087 548.508972,202.824402 547.747803,207.544647 
	C547.425964,209.540192 544.702942,211.657990 542.574097,212.758774 
	C535.707336,216.309494 529.320007,217.850876 525.131653,212.425095 
	C523.806030,210.707855 523.677551,208.066513 523.008423,205.443436 
z"/>
</svg>