<?xml version="1.0" encoding="UTF-8"?>
<svg version="1.1" xmlns="http://www.w3.org/2000/svg" width="310" height="163">
<path d="M0 0 C102.3 0 204.6 0 310 0 C310 53.79 310 107.58 310 163 C207.7 163 105.4 163 0 163 C0 109.21 0 55.42 0 0 Z " fill="#FEFEFE" transform="translate(0,0)"/>
<path d="M0 0 C5.83320159 1.94440053 9.07181265 5.66457416 12.11328125 10.92578125 C13.68451559 14.60122369 13.62948949 18.08817242 13 22 C10.82627795 27.11094152 7.65603715 30.93681767 3 34 C-1.62801048 35.54267016 -6.16677726 35.50548031 -11 35 C-14.4375 33.25 -14.4375 33.25 -17 31 C-17.7425 30.360625 -18.485 29.72125 -19.25 29.0625 C-22.65969333 25.04393287 -23.42049747 21.31692529 -23.2421875 16.046875 C-22.48360919 9.63566478 -19.43217887 6.03362343 -14.62109375 2.1640625 C-10.19380045 -1.01505413 -5.2560527 -0.40202103 0 0 Z " fill="#060606" transform="translate(52,63)"/>
<path d="M0 0 C5.2354914 2.47495957 9.39229231 6.78458462 12 12 C12.55674965 17.95293853 12.54141118 22.97348091 9 28 C4.26812129 32.75425166 0.65561565 35.11899109 -6.1875 35.4375 C-11.38522892 35.36874697 -14.4300226 34.32214068 -18.3359375 30.8984375 C-22.38214573 26.28234079 -24.40531482 21.48575655 -24 15.3125 C-22.86263026 8.78399768 -19.30825991 4.77165835 -14 1 C-9.81411228 -1.09294386 -4.5584359 -0.42417949 0 0 Z " fill="#060606" transform="translate(248,63)"/>
<path d="M0 0 C17.44827586 0 17.44827586 0 22 3 C24.21223073 5.35049516 24.95261604 6.88544682 25.08984375 10.11328125 C24.73688704 15.49813355 23.33808376 18.80047527 20 23 C20.5053125 23.78246094 21.010625 24.56492187 21.53125 25.37109375 C22.1809375 26.38300781 22.830625 27.39492187 23.5 28.4375 C24.1496875 29.44683594 24.799375 30.45617187 25.46875 31.49609375 C27 34 27 34 27 35 C21.9739777 35.8817583 21.9739777 35.8817583 19 35 C16.8788643 32.57151607 15.32696532 30.08802071 13.73828125 27.28515625 C11.95471902 24.41746191 11.95471902 24.41746191 7 24 C7 27.63 7 31.26 7 35 C4.69 35 2.38 35 0 35 C0 23.45 0 11.9 0 0 Z " fill="#0A0A0A" transform="translate(137,63)"/>
<path d="M0 0 C2.64 0 5.28 0 8 0 C9.98 5.94 11.96 11.88 14 18 C16.52694849 14.20957727 18.09464541 10.47351682 19 6 C18.35373808 2.54439902 18.35373808 2.54439902 17 0 C19.31 0 21.62 0 24 0 C29.37129841 12.48519362 29.37129841 12.48519362 31 19 C31.66 19 32.32 19 33 19 C33.103125 17.88625 33.20625 16.7725 33.3125 15.625 C34.85267857 3.14732143 34.85267857 3.14732143 38 0 C40.33297433 -0.04092937 42.66705225 -0.04241723 45 0 C42.76089995 8.07275741 39.85969819 15.82660692 36.8125 23.625 C36.11737305 25.41744141 36.11737305 25.41744141 35.40820312 27.24609375 C34.27551405 30.16539549 33.13938352 33.08330604 32 36 C29.7516681 32.62750215 28.38823561 29.13067565 26.9375 25.375 C25.48963774 20.85583285 25.48963774 20.85583285 23 17 C20.03 23.27 17.06 29.54 14 36 C11.86657258 32.79985887 10.54882109 29.55967415 9.1796875 25.99609375 C8.78440353 24.97745995 8.78440353 24.97745995 8.38113403 23.93824768 C7.82636107 22.50582689 7.27341233 21.07269843 6.72216797 19.63891602 C5.87601941 17.44014901 5.02241015 15.24438385 4.16796875 13.04882812 C3.62975926 11.6564235 3.09198384 10.263851 2.5546875 8.87109375 C2.29847626 8.21274033 2.04226501 7.5543869 1.77828979 6.87608337 C0 2.23012415 0 2.23012415 0 0 Z " fill="#070707" transform="translate(262,63)"/>
<path d="M0 0 C7.86153846 6.73846154 7.86153846 6.73846154 10.9375 9.4375 C11.59621094 10.015 12.25492188 10.5925 12.93359375 11.1875 C13.61550781 11.785625 14.29742187 12.38375 15 13 C16.49984117 14.3126815 17.99983611 15.62518732 19.5 16.9375 C20.655 17.948125 21.81 18.95875 23 20 C23.33 13.73 23.66 7.46 24 1 C26.31 1 28.62 1 31 1 C31 12.88 31 24.76 31 37 C23.13846154 30.26153846 23.13846154 30.26153846 20.0625 27.5625 C19.40378906 26.985 18.74507812 26.4075 18.06640625 25.8125 C17.38449219 25.214375 16.70257813 24.61625 16 24 C14.50015883 22.6873185 13.00016389 21.37481268 11.5 20.0625 C9.7675 18.5465625 9.7675 18.5465625 8 17 C7.67 23.27 7.34 29.54 7 36 C4.69 36 2.38 36 0 36 C0 24.12 0 12.24 0 0 Z " fill="#0A0A0A" transform="translate(186,62)"/>
<path d="M0 0 C16 0 16 0 22 4 C24.69542917 8.04314376 24.66452365 11.25108711 24 16 C21.92305619 20.07971105 20.2451295 22.33117192 16 24 C12.97207178 24.25065631 10.04558972 24.08957617 7 24 C7 27.63 7 31.26 7 35 C4.69 35 2.38 35 0 35 C0 23.45 0 11.9 0 0 Z " fill="#080808" transform="translate(1,63)"/>
<path d="M0 0 C7.59 0 15.18 0 23 0 C23 1.98 23 3.96 23 6 C17.39 6 11.78 6 6 6 C6 8.64 6 11.28 6 14 C11.28 14 16.56 14 22 14 C22 16.31 22 18.62 22 21 C17.05 21 12.1 21 7 21 C7 23.31 7 25.62 7 28 C12.61 28 18.22 28 24 28 C24 30.31 24 32.62 24 35 C16.08 35 8.16 35 0 35 C0 23.45 0 11.9 0 0 Z " fill="#090909" transform="translate(106,63)"/>
<path d="M0 0 C2.31 0 4.62 0 7 0 C7.33 3.96 7.66 7.92 8 12 C8.68964844 11.13375 9.37929687 10.2675 10.08984375 9.375 C17.52394195 0.43016549 17.52394195 0.43016549 21.734375 -0.796875 C24.1875 -0.75 24.1875 -0.75 28 0 C23.70214922 5.03163018 19.36574458 10.02718443 15 15 C16.30857808 17.77014152 17.76572871 20.18642252 19.6015625 22.63671875 C20.09140625 23.29607422 20.58125 23.95542969 21.0859375 24.63476562 C21.59382813 25.31216797 22.10171875 25.98957031 22.625 26.6875 C28 33.86984375 28 33.86984375 28 35 C22.53571429 36.23387097 22.53571429 36.23387097 19 35 C15.75731485 31.79827509 13.40191093 27.88910111 10.96875 24.0625 C10.3190625 23.051875 9.669375 22.04125 9 21 C8.67 21 8.34 21 8 21 C7.67 25.62 7.34 30.24 7 35 C4.69 35 2.38 35 0 35 C0 23.45 0 11.9 0 0 Z " fill="#030303" transform="translate(72,63)"/>
<path d="M0 0 C3.08193978 1.6281946 5.26420667 3.03009062 7.375 5.8125 C8.73537221 10.57380273 8.56878187 13.92337717 6.25 18.3125 C3.24080771 21.90681302 1.68299118 22.82095839 -2.9375 23.3125 C-6.49256959 22.9497378 -8.19582377 22.19786786 -11 20 C-13.33772514 17.09799637 -13.96474659 15.27699106 -14.4375 11.5625 C-13.91894272 7.33996212 -12.66649168 5.2759755 -10 2 C-6.24543433 -0.50304378 -4.45254066 -0.45280074 0 0 Z " fill="#F6F6F6" transform="translate(50,69)"/>
<path d="M0 0 C2.97672584 1.77280561 5.42804007 3.85608015 7 7 C7.54399285 11.539219 7.62289461 14.9544269 5.25 18.9375 C2.152255 21.77709959 0.28349643 22.80468533 -3.875 23.4375 C-8.74397146 22.755844 -11.45012791 19.95418655 -14.4375 16.1875 C-15.34304597 12.66593236 -15.07418575 9.42651657 -14 6 C-9.64386771 0.75030212 -6.82263885 -0.68226388 0 0 Z " fill="#F6F6F6" transform="translate(246,69)"/>
<path d="M0 0 C6.28388747 -0.48337596 6.28388747 -0.48337596 9.5 1.6875 C11 4 11 4 10.875 6.625 C10 9 10 9 8 11 C5.31160615 11.26991906 2.70858064 11.08737357 0 11 C0 7.37 0 3.74 0 0 Z " fill="#EBEBEB" transform="translate(144,69)"/>
<path d="M0 0 C6.0546875 -0.1953125 6.0546875 -0.1953125 8 0 C10 2 10 2 10.25 5 C10 8 10 8 8 10 C5.31160615 10.26991906 2.70858064 10.08737357 0 10 C0 6.7 0 3.4 0 0 Z " fill="#FAFAFA" transform="translate(8,70)"/>
</svg>
