<?xml version="1.0" encoding="UTF-8"?>
<svg version="1.1" xmlns="http://www.w3.org/2000/svg" width="396" height="127">
<path d="M0 0 C130.68 0 261.36 0 396 0 C396 41.91 396 83.82 396 127 C265.32 127 134.64 127 0 127 C0 85.09 0 43.18 0 0 Z " fill="#FCFCFC" transform="translate(0,0)"/>
<path d="M0 0 C1.28732868 0.64283466 2.57783477 1.27933716 3.87109375 1.91015625 C7.26694479 3.57014285 10.63730794 5.2738844 14 7 C14 11.29 14 15.58 14 20 C9.57889771 18.68142563 5.38601989 17.22932733 1.23828125 15.20703125 C0.58093994 14.88677979 -0.07640137 14.56652832 -0.75366211 14.23657227 C-2.0691534 13.58646828 -3.37882109 12.92442436 -4.68188477 12.24975586 C-7.56416256 10.8254073 -9.54000058 9.96058994 -12.78125 10.23828125 C-13.5134375 10.48964844 -14.245625 10.74101562 -15 11 C-16.36125 11.4640625 -16.36125 11.4640625 -17.75 11.9375 C-20.1515301 12.7882089 -20.1515301 12.7882089 -21 15 C-20.16734619 15.25974609 -19.33469238 15.51949219 -18.47680664 15.78710938 C-14.66713742 17.11611975 -11.0302564 18.71801446 -7.37109375 20.40625 C-6.65897232 20.73161743 -5.94685089 21.05698486 -5.21315002 21.39221191 C-2.95327128 22.42526749 -0.69529284 23.46239453 1.5625 24.5 C3.82415792 25.53694473 6.0862163 26.57299982 8.34886169 27.60778809 C9.75189869 28.24969641 11.15432639 28.89293872 12.55604553 29.53771973 C16.01114615 31.12098517 19.46789341 32.58715737 23 34 C23 39.94 23 45.88 23 52 C14.42829532 49.38186426 6.5702632 45.60748309 -1.46875 41.67578125 C-2.49484375 41.18980469 -3.5209375 40.70382813 -4.578125 40.203125 C-5.50012695 39.75614258 -6.42212891 39.30916016 -7.37207031 38.84863281 C-12.00133314 37.35371293 -15.56599902 39.09770104 -19.8125 41.0625 C-21.20833333 41.70833333 -22.60416667 42.35416667 -24 43 C-13.51418067 48.33539218 -2.93683933 53.41183272 7.77612305 58.2746582 C10.09364168 59.32663596 12.40926627 60.38269682 14.72460938 61.43945312 C16.22385318 62.12262664 17.72319836 62.80557774 19.22265625 63.48828125 C19.90191666 63.79768143 20.58117706 64.1070816 21.28102112 64.42585754 C21.92957565 64.72014145 22.57813019 65.01442535 23.24633789 65.31762695 C23.80430557 65.57107376 24.36227325 65.82452057 24.93714905 66.08564758 C27.94554978 67.41911207 30.97538398 68.70373599 34 70 C34 77.92 34 85.84 34 94 C23.87960688 90.62653563 23.87960688 90.62653563 19.4765625 88.4765625 C18.5175 88.0125 17.5584375 87.5484375 16.5703125 87.0703125 C15.59835938 86.59335938 14.62640625 86.11640625 13.625 85.625 C10.71695086 84.20985309 7.80766369 82.7979838 4.89160156 81.39941406 C2.93991479 80.4548794 0.99918128 79.48741807 -0.93066406 78.49902344 C-1.87393555 78.03270508 -2.81720703 77.56638672 -3.7890625 77.0859375 C-4.6238916 76.66103027 -5.4587207 76.23612305 -6.31884766 75.79833984 C-12.12622931 74.06913405 -17.14067379 76.25364786 -22.38671875 78.765625 C-24.1665918 79.60673828 -24.1665918 79.60673828 -25.98242188 80.46484375 C-27.21768608 81.05940128 -28.45271141 81.65445534 -29.6875 82.25 C-38.37153682 86.39784191 -47.08294552 90.37041088 -56 94 C-56 86.08 -56 78.16 -56 70 C-52.596875 68.35 -49.19375 66.7 -45.6875 65 C-44.61846436 64.47792969 -43.54942871 63.95585938 -42.44799805 63.41796875 C-41.60277588 63.01191406 -40.75755371 62.60585937 -39.88671875 62.1875 C-38.59060669 61.55908203 -38.59060669 61.55908203 -37.26831055 60.91796875 C-35 60 -35 60 -32 60 C-32 59.34 -32 58.68 -32 58 C-32.60328125 57.80664062 -33.2065625 57.61328125 -33.828125 57.4140625 C-34.62734375 57.15367188 -35.4265625 56.89328125 -36.25 56.625 C-37.43335938 56.24214844 -37.43335938 56.24214844 -38.640625 55.8515625 C-41 55 -41 55 -45 53 C-45 46.73 -45 40.46 -45 34 C-37.625 30.5625 -37.625 30.5625 -35.30712891 29.48266602 C-31.6376418 27.77447859 -31.6376418 27.77447859 -28 26 C-31.3 24.35 -34.6 22.7 -38 21 C-38 16.38 -38 11.76 -38 7 C-37.04480469 6.55269531 -36.08960937 6.10539063 -35.10546875 5.64453125 C-34.48518799 5.35352539 -33.86490723 5.06251953 -33.22583008 4.76269531 C-31.85726808 4.12472151 -30.48594952 3.49263061 -29.11206055 2.86621094 C-25.97765733 1.43145664 -22.96207286 -0.02200166 -19.9765625 -1.75390625 C-11.99380952 -6.23688923 -7.71788176 -4.21060621 0 0 Z " fill="#221E58" transform="translate(65,7)"/>
<path d="M0 0 C0.75318512 0.34660675 1.50637024 0.6932135 2.28237915 1.05032349 C4.68279026 2.15614342 7.07975086 3.26921546 9.4765625 4.3828125 C11.86691969 5.48772519 14.25796646 6.59112913 16.64932251 7.69387817 C18.13376327 8.37903057 19.61751063 9.06568804 21.10043335 9.75411987 C22.12652206 10.22943649 22.12652206 10.22943649 23.17333984 10.71435547 C24.06005875 11.12619583 24.06005875 11.12619583 24.96469116 11.5463562 C27.99194507 12.90842807 31.05040163 14.20017213 34.1015625 15.5078125 C34.1015625 23.4278125 34.1015625 31.3478125 34.1015625 39.5078125 C23.98116938 36.13434813 23.98116938 36.13434813 19.578125 33.984375 C18.6190625 33.5203125 17.66 33.05625 16.671875 32.578125 C15.21394531 31.86269531 15.21394531 31.86269531 13.7265625 31.1328125 C10.81851336 29.71766559 7.90922619 28.3057963 4.99316406 26.90722656 C3.04147729 25.9626919 1.10074378 24.99523057 -0.82910156 24.00683594 C-1.77237305 23.54051758 -2.71564453 23.07419922 -3.6875 22.59375 C-4.5223291 22.16884277 -5.3571582 21.74393555 -6.21728516 21.30615234 C-12.02466681 19.57694655 -17.03911129 21.76146036 -22.28515625 24.2734375 C-23.47173828 24.83417969 -24.65832031 25.39492187 -25.88085938 25.97265625 C-27.11612358 26.56721378 -28.35114891 27.16226784 -29.5859375 27.7578125 C-38.26997432 31.90565441 -46.98138302 35.87822338 -55.8984375 39.5078125 C-55.8984375 31.5878125 -55.8984375 23.6678125 -55.8984375 15.5078125 C-49.9314742 12.64693968 -43.96200642 9.79498045 -37.97949219 6.96728516 C-35.9260671 5.99459299 -33.87462505 5.01770336 -31.82519531 4.03662109 C-28.85579449 2.61765333 -25.878305 1.21714108 -22.8984375 -0.1796875 C-21.97401855 -0.62554199 -21.04959961 -1.07139648 -20.09716797 -1.53076172 C-18.79223389 -2.13621826 -18.79223389 -2.13621826 -17.4609375 -2.75390625 C-16.69910156 -3.11444092 -15.93726563 -3.47497559 -15.15234375 -3.84643555 C-9.73333375 -5.39900069 -4.83962363 -2.26136994 0 0 Z " fill="#221D57" transform="translate(64.8984375,61.4921875)"/>
<path d="M0 0 C1.73479614 0.82419434 1.73479614 0.82419434 3.50463867 1.66503906 C4.45302864 2.11124603 4.45302864 2.11124603 5.420578 2.56646729 C7.42551889 3.51248761 9.42397588 4.47139836 11.42260742 5.43066406 C12.75098857 6.05910362 14.07976209 6.6867145 15.40893555 7.31347656 C22.52188164 10.67717563 29.59299395 14.12082324 36.61010742 17.68066406 C34.50779486 19.78297662 33.06367602 20.46870012 30.34838867 21.59863281 C29.48334717 21.9627124 28.61830566 22.32679199 27.72705078 22.7019043 C26.80158447 23.08677002 25.87611816 23.47163574 24.92260742 23.86816406 C10.39620228 29.63375842 10.39620228 29.63375842 -3.35473633 36.93457031 C-8.42964661 38.79504606 -13.74511252 36.31045052 -18.39102173 34.17921448 C-19.10478973 33.8406694 -19.81855774 33.50212433 -20.55395508 33.15332031 C-21.68660294 32.62985268 -21.68660294 32.62985268 -22.84213257 32.09580994 C-25.23714852 30.98683651 -27.62608929 29.86544816 -30.01489258 28.74316406 C-32.41205325 27.62723613 -34.81039024 26.51387546 -37.20907593 25.40122986 C-38.69610321 24.71034643 -40.18202346 24.01707369 -41.66665649 23.32106018 C-45.20511143 21.66629528 -48.74131989 20.08317576 -52.38989258 18.68066406 C-49.73467769 15.47330915 -46.32326773 14.09195494 -42.59692383 12.46582031 C-41.93206467 12.16880722 -41.26720551 11.87179413 -40.5821991 11.56578064 C-38.45842425 10.6183938 -36.33065912 9.6804111 -34.20239258 8.74316406 C-32.09727419 7.80972836 -29.99305148 6.87432929 -27.88961792 5.93710327 C-26.53584501 5.33481742 -25.18081248 4.73535435 -23.82449341 4.13882446 C-20.40172647 2.6245146 -17.10185979 1.00757905 -13.83911133 -0.82324219 C-8.75197547 -3.02978016 -5.07992142 -1.97709005 0 0 Z " fill="#2BABE2" transform="translate(61.389892578125,83.3193359375)"/>
<path d="M0 0 C4.62 0 9.24 0 14 0 C15.24472913 3.11182282 16.28079351 5.74491218 17.0703125 8.91796875 C17.24433594 9.61470703 17.41835937 10.31144531 17.59765625 11.02929688 C17.77167969 11.74150391 17.94570312 12.45371094 18.125 13.1875 C18.30675781 13.91130859 18.48851562 14.63511719 18.67578125 15.38085938 C20 20.7324953 20 20.7324953 20 23 C20.66 23 21.32 23 22 23 C22.18175781 22.09378906 22.36351562 21.18757813 22.55078125 20.25390625 C23.98264883 13.31485568 25.58757545 6.66288686 28 0 C32.29 0 36.58 0 41 0 C43.6174707 7.59066503 45.83407095 15.27082172 48 23 C50.3644854 15.34242801 52.70761808 7.67947944 55 0 C59.29 0 63.58 0 68 0 C66.49251577 7.69308527 64.09975431 14.92438033 61.5 22.3125 C61.09652344 23.47845703 60.69304687 24.64441406 60.27734375 25.84570312 C58.69505894 30.38106404 57.15140865 34.6971827 55 39 C50.71 39 46.42 39 42 39 C41.50628906 37.49566406 41.01257813 35.99132812 40.50390625 34.44140625 C39.85692813 32.4817189 39.20978416 30.52208629 38.5625 28.5625 C38.23701172 27.56927734 37.91152344 26.57605469 37.57617188 25.55273438 C37.26357422 24.60849609 36.95097656 23.66425781 36.62890625 22.69140625 C36.34088135 21.81685791 36.05285645 20.94230957 35.75610352 20.04125977 C35.17466716 18.03551105 35.17466716 18.03551105 34 17 C31.69 24.26 29.38 31.52 27 39 C22.71 39 18.42 39 14 39 C10.2839862 30.36670329 7.10210113 21.68293724 4.1875 12.75 C3.78080078 11.51636719 3.37410156 10.28273438 2.95507812 9.01171875 C1.96587177 6.00918651 0.98233439 3.00478755 0 0 Z " fill="#050505" transform="translate(207,35)"/>
<path d="M0 0 C4.8433553 2.88148986 8.39776037 7.13329239 10.5 12.375 C11.15688222 18.97794598 11.65283968 25.88253462 7.5 31.375 C1.84307078 37.14367103 -3.04037743 39.65607673 -11.25 39.875 C-18.21666524 39.77276382 -22.49946726 38.22133129 -27.5 33.375 C-32.1163049 28.11395978 -32.8613898 22.76841045 -32.78125 15.9765625 C-32.20268642 10.62484938 -29.93752329 6.77469373 -26.125 3.0625 C-25.25875 2.505625 -24.3925 1.94875 -23.5 1.375 C-22.675 0.7975 -21.85 0.22 -21 -0.375 C-14.35493916 -2.74823601 -6.51650242 -2.9609203 0 0 Z " fill="#050505" transform="translate(191.5,35.625)"/>
<path d="M0 0 C4.94153949 3.49523525 8.49774394 7.0529173 10.5625 12.8125 C10.5625 16.1125 10.5625 19.4125 10.5625 22.8125 C1.3225 22.8125 -7.9175 22.8125 -17.4375 22.8125 C-14.93693407 27.78871743 -14.93693407 27.78871743 -11.4375 29.8125 C-7.78895513 30.20908096 -6.00831293 30.17447893 -2.875 28.1875 C-0.4375 26.8125 -0.4375 26.8125 2.125 27.5 C3.3315625 28.1496875 3.3315625 28.1496875 4.5625 28.8125 C5.325625 29.18375 6.08875 29.555 6.875 29.9375 C7.431875 30.22625 7.98875 30.515 8.5625 30.8125 C8.00462372 34.11738731 7.23920754 35.61194342 4.5 37.5625 C-1.87684491 41.27559957 -9.35829199 40.70924829 -16.4375 39.8125 C-19.77034615 38.69167618 -21.9362674 37.25702959 -24.4375 34.8125 C-24.95957031 34.37421875 -25.48164063 33.9359375 -26.01953125 33.484375 C-29.80371297 29.52297265 -29.91879674 25.01209085 -30 19.75 C-30.01482422 19.06510498 -30.02964844 18.38020996 -30.04492188 17.67456055 C-29.92644923 11.83343602 -27.87500634 8.32313153 -23.875 4.203125 C-16.47972924 -1.66486158 -9.17314165 -3.16890348 0 0 Z " fill="#050505" transform="translate(310.4375,35.1875)"/>
<path d="M0 0 C14.52 0 29.04 0 44 0 C44 3.63 44 7.26 44 11 C39.05 11 34.1 11 29 11 C29 25.52 29 40.04 29 55 C24.38 55 19.76 55 15 55 C15 40.48 15 25.96 15 11 C10.05 11 5.1 11 0 11 C0 7.37 0 3.74 0 0 Z " fill="#060606" transform="translate(117,19)"/>
<path d="M0 0 C1.40766096 0.68108195 2.81863652 1.35540282 4.234375 2.01953125 C5.97460938 2.90705078 5.97460938 2.90705078 7.75 3.8125 C8.36359375 4.12380859 8.9771875 4.43511719 9.609375 4.75585938 C11.07487652 5.50005937 12.53775983 6.24941222 14 7 C14 11.29 14 15.58 14 20 C9.57889771 18.68142563 5.38601989 17.22932733 1.23828125 15.20703125 C0.58093994 14.88677979 -0.07640137 14.56652832 -0.75366211 14.23657227 C-2.0691534 13.58646828 -3.37882109 12.92442436 -4.68188477 12.24975586 C-8.68693942 10.27055946 -10.7401855 9.82586423 -15 11 C-16.61749253 11.64083672 -18.21559094 12.33235376 -19.79296875 13.06640625 C-20.67017578 13.46923828 -21.54738281 13.87207031 -22.45117188 14.28710938 C-23.35416016 14.70798828 -24.25714844 15.12886719 -25.1875 15.5625 C-26.9919314 16.4004988 -28.79785124 17.23530241 -30.60546875 18.06640625 C-31.40106201 18.43709229 -32.19665527 18.80777832 -33.01635742 19.18969727 C-35 20 -35 20 -37 20 C-37 15.38 -37 10.76 -37 6 C-33.10383326 4.0066825 -29.19333935 2.08325034 -25.25 0.1875 C-24.15816406 -0.37904297 -23.06632812 -0.94558594 -21.94140625 -1.52929688 C-13.01550442 -5.72816785 -8.42231993 -4.79913612 0 0 Z " fill="#211C57" transform="translate(65,7)"/>
<path d="M0 0 C3.96 0 7.92 0 12 0 C12.33 1.32 12.66 2.64 13 4 C13.495 3.34 13.99 2.68 14.5 2 C18.10340212 -0.8827217 20.46985042 -0.30200997 25 0 C25 3.3 25 6.6 25 10 C22.02148438 10.63476562 22.02148438 10.63476562 19.04296875 11.26953125 C16.57555803 12.15176032 15.61253021 12.93219353 14 15 C13.49520343 17.6068023 13.49520343 17.6068023 13.48828125 20.54296875 C13.45283203 21.61611328 13.41738281 22.68925781 13.38085938 23.79492188 C13.35830078 24.91447266 13.33574219 26.03402344 13.3125 27.1875 C13.27833984 28.31865234 13.24417969 29.44980469 13.20898438 30.61523438 C13.1264443 33.40980557 13.06154765 36.20488768 13 39 C8.71 39 4.42 39 0 39 C0 26.13 0 13.26 0 0 Z " fill="#050505" transform="translate(331,35)"/>
<path d="M0 0 C1.18239258 0.5266626 2.36478516 1.0533252 3.58300781 1.59594727 C4.2172467 1.87833755 4.8514856 2.16072784 5.50494385 2.45167542 C6.83729805 3.04674257 8.16847923 3.64444238 9.49853516 4.24462891 C11.53986063 5.16403251 13.58647155 6.07083799 15.63378906 6.97680664 C16.92969841 7.55743654 18.22528323 8.13879143 19.52050781 8.72094727 C20.69838867 9.24873779 21.87626953 9.77652832 23.08984375 10.3203125 C25.78613281 11.72485352 25.78613281 11.72485352 26.78613281 13.72485352 C24.8527688 14.85214413 22.8876121 15.92499154 20.91113281 16.97485352 C19.82058594 17.57813477 18.73003906 18.18141602 17.60644531 18.80297852 C12.04585642 20.14479751 8.7862831 18.14733852 3.78613281 15.72485352 C2.05115265 14.9689466 0.31416954 14.21761994 -1.42480469 13.47094727 C-3.14712831 12.70358825 -4.86848412 11.93405333 -6.58886719 11.16235352 C-7.46414062 10.7762793 -8.33941406 10.39020508 -9.24121094 9.99243164 C-10.08554687 9.6140918 -10.92988281 9.23575195 -11.79980469 8.84594727 C-12.55310059 8.51006592 -13.30639648 8.17418457 -14.08251953 7.828125 C-16.33085832 6.66429419 -18.2332468 5.29571939 -20.21386719 3.72485352 C-18.32738675 2.68683796 -16.42923062 1.67002185 -14.52636719 0.66235352 C-13.470625 0.09387695 -12.41488281 -0.47459961 -11.32714844 -1.06030273 C-6.85712364 -2.80456586 -4.38786944 -1.7409482 0 0 Z " fill="#2CA9E0" transform="translate(60.2138671875,46.275146484375)"/>
<path d="M0 0 C1.23580113 0.63424714 2.46630817 1.27891171 3.69140625 1.93359375 C4.32755859 2.26294922 4.96371094 2.59230469 5.61914062 2.93164062 C7.16885201 3.73562623 8.71208947 4.55207041 10.25390625 5.37109375 C7.55021638 8.07478362 4.35124439 9.43656398 0.94140625 11.05859375 C-0.05536133 11.55842773 -0.05536133 11.55842773 -1.07226562 12.06835938 C-3.8532632 13.39146505 -6.12831009 14.38852338 -9.23828125 14.30078125 C-12.77495737 12.98967702 -16.1637606 11.44915905 -19.55859375 9.80859375 C-20.25146484 9.47923828 -20.94433594 9.14988281 -21.65820312 8.81054688 C-23.35654323 8.00237124 -25.05165144 7.18740998 -26.74609375 6.37109375 C-24.13096525 3.3139717 -21.09522322 1.84532787 -17.49609375 0.12109375 C-16.3978125 -0.4203125 -15.29953125 -0.96171875 -14.16796875 -1.51953125 C-8.88975424 -3.23073321 -4.9098924 -2.29383041 0 0 Z " fill="#F6F8FA" transform="translate(61.74609375,83.62890625)"/>
<path d="M0 0 C2 2 2 2 2.13525391 4.15478516 C2.08288574 5.02409668 2.03051758 5.8934082 1.9765625 6.7890625 C1.925 7.73007813 1.8734375 8.67109375 1.8203125 9.640625 C1.75585938 10.62546875 1.69140625 11.6103125 1.625 12.625 C1.56828125 13.61757812 1.5115625 14.61015625 1.453125 15.6328125 C1.31140759 18.08924767 1.15997723 20.54469735 1 23 C-5.01117092 22.45080664 -9.97766352 19.95138069 -15.375 17.4375 C-16.30183594 17.01275391 -17.22867187 16.58800781 -18.18359375 16.15039062 C-20.45875685 15.10663024 -22.73067035 14.05636818 -25 13 C-22.60487755 10.27212538 -20.19490777 8.98848496 -16.89453125 7.51953125 C-15.91162109 7.07802734 -14.92871094 6.63652344 -13.91601562 6.18164062 C-12.37977539 5.50391602 -12.37977539 5.50391602 -10.8125 4.8125 C-9.25885742 4.11737305 -9.25885742 4.11737305 -7.67382812 3.40820312 C-5.11855182 2.26598284 -2.56061238 1.13019477 0 0 Z " fill="#3E498B" transform="translate(34,89)"/>
<path d="M0 0 C3.17457096 2.5914865 4.54580349 4.07435695 5.47265625 8.00390625 C5.7541272 11.80737271 5.11414784 13.8374258 2.9375 16.9375 C-0.6336219 19.44488346 -2.63040496 20.15331912 -7 20 C-11.34629458 17.78734094 -11.34629458 17.78734094 -13 15 C-13.94558962 10.11325061 -13.93181055 5.7420806 -11.5625 1.3125 C-7.68054217 -0.67581986 -4.25449639 -0.98413618 0 0 Z " fill="#F8F8F8" transform="translate(185,45)"/>
<path d="M0 0 C0.33 0 0.66 0 1 0 C1 4.62 1 9.24 1 14 C-7.32870838 19.04414733 -7.32870838 19.04414733 -11.0703125 18.9453125 C-13.51868531 18.16759408 -15.69326591 17.14040786 -18 16 C-19.44658085 15.33043972 -20.89464144 14.6640719 -22.34375 14 C-26.58400077 12.04326649 -30.79547078 10.03226957 -35 8 C-34 5 -34 5 -30.75 3.25 C-25.21758658 1.40586219 -21.85014224 2.90548984 -16.69921875 5.28515625 C-15.72275391 5.73310547 -14.74628906 6.18105469 -13.74023438 6.64257812 C-12.73283203 7.11115234 -11.72542969 7.57972656 -10.6875 8.0625 C-9.14739258 8.77116211 -9.14739258 8.77116211 -7.57617188 9.49414062 C-5.04858638 10.65800557 -2.52399654 11.82837229 0 13 C0 8.71 0 4.42 0 0 Z " fill="#2EA8DF" transform="translate(79,14)"/>
<path d="M0 0 C0 0.66 0 1.32 0 2 C-2.69783215 3.39998862 -5.40494933 4.76944843 -8.125 6.125 C-8.88554688 6.52332031 -9.64609375 6.92164063 -10.4296875 7.33203125 C-16.18011185 10.1576708 -16.18011185 10.1576708 -20.25 9.375 C-21.1575 8.92125 -22.065 8.4675 -23 8 C-24.26457031 7.47019531 -24.26457031 7.47019531 -25.5546875 6.9296875 C-26.32039063 6.58164062 -27.08609375 6.23359375 -27.875 5.875 C-29.04675781 5.34519531 -29.04675781 5.34519531 -30.2421875 4.8046875 C-30.82226562 4.53914063 -31.40234375 4.27359375 -32 4 C-22.96405377 -6.83634153 -10.8869076 -7.43814406 0 0 Z " fill="#3D4689" transform="translate(52,56)"/>
<path d="M0 0 C2.97 1.32 5.94 2.64 9 4 C9 11.59 9 19.18 9 27 C4.39942914 26.07988583 1.20327441 24.89559434 -3 23 C-2.34 22.67 -1.68 22.34 -1 22 C-1.00523682 21.36908447 -1.01047363 20.73816895 -1.01586914 20.08813477 C-1.03657826 17.24626653 -1.04964066 14.40441412 -1.0625 11.5625 C-1.07087891 10.56927734 -1.07925781 9.57605469 -1.08789062 8.55273438 C-1.09111328 7.60849609 -1.09433594 6.66425781 -1.09765625 5.69140625 C-1.10289307 4.81685791 -1.10812988 3.94230957 -1.11352539 3.04125977 C-1 1 -1 1 0 0 Z " fill="#3573B1" transform="translate(36,90)"/>
<path d="M0 0 C0.88300781 0.45503906 1.76601562 0.91007812 2.67578125 1.37890625 C3.67158203 1.90291016 3.67158203 1.90291016 4.6875 2.4375 C2.13437803 4.41631168 -0.3956168 6.17269862 -3.25 7.6875 C-3.89839844 8.04328125 -4.54679687 8.3990625 -5.21484375 8.765625 C-8.87950714 9.93940918 -11.57294283 8.76679188 -14.98828125 7.24609375 C-15.85839844 6.79363281 -16.72851562 6.34117188 -17.625 5.875 C-18.50800781 5.41996094 -19.39101563 4.96492188 -20.30078125 4.49609375 C-20.96464844 4.14675781 -21.62851562 3.79742187 -22.3125 3.4375 C-20.08236881 0.96588963 -17.95971486 -0.43032665 -14.9375 -1.8125 C-14.18726563 -2.16828125 -13.43703125 -2.5240625 -12.6640625 -2.890625 C-7.90070983 -4.25158291 -4.2100496 -2.18922579 0 0 Z " fill="#F5F7FA" transform="translate(62.3125,47.5625)"/>
<path d="M0 0 C0.33 0 0.66 0 1 0 C1 4.29 1 8.58 1 13 C6.28 10.69 11.56 8.38 17 6 C17 6.66 17 7.32 17 8 C17.94875 8.309375 18.8975 8.61875 19.875 8.9375 C23 10 23 10 25 11 C25 11.66 25 12.32 25 13 C23.21046815 13.83790789 21.41830305 14.67019396 19.625 15.5 C18.62726562 15.9640625 17.62953125 16.428125 16.6015625 16.90625 C14 18 14 18 12 18 C12 18.66 12 19.32 12 20 C8 18 4 16 0 14 C0 9.38 0 4.76 0 0 Z " fill="#3E5594" transform="translate(27,14)"/>
<path d="M0 0 C2 2 2 2 2.13525391 4.15478516 C2.08288574 5.02409668 2.03051758 5.8934082 1.9765625 6.7890625 C1.925 7.73007813 1.8734375 8.67109375 1.8203125 9.640625 C1.75585938 10.62546875 1.69140625 11.6103125 1.625 12.625 C1.56828125 13.61757812 1.5115625 14.61015625 1.453125 15.6328125 C1.31140759 18.08924767 1.15997723 20.54469735 1 23 C-4.75 22.25 -4.75 22.25 -7 20 C-7.27965937 17.48600949 -7.41605309 15.14143802 -7.4375 12.625 C-7.47037109 11.95210937 -7.50324219 11.27921875 -7.53710938 10.5859375 C-7.55859375 8.6015625 -7.55859375 8.6015625 -7 5 C-4.75980823 2.74888046 -2.81745438 1.40872719 0 0 Z " fill="#3666A5" transform="translate(34,89)"/>
<path d="M0 0 C2.64942024 1.11711744 5.29436488 2.24319023 7.9375 3.375 C9.06961914 3.85066406 9.06961914 3.85066406 10.22460938 4.3359375 C15.88671875 6.7734375 15.88671875 6.7734375 17 9 C14.921188 10.00936536 12.8367638 11.00717846 10.75 12 C9.58984375 12.556875 8.4296875 13.11375 7.234375 13.6875 C4 15 4 15 0 15 C0 10.05 0 5.1 0 0 Z " fill="#347CB8" transform="translate(81,93)"/>
<path d="M0 0 C1.98 0.99 3.96 1.98 6 3 C6 9.93 6 16.86 6 24 C2 25 2 25 0 24 C0 16.08 0 8.16 0 0 Z " fill="#2C9AD3" transform="translate(45,94)"/>
<path d="M0 0 C1.32 0.66 2.64 1.32 4 2 C4 9.59 4 17.18 4 25 C2.35 24.67 0.7 24.34 -1 24 C-1.02893932 20.37501666 -1.04677792 16.75006287 -1.0625 13.125 C-1.07087891 12.09246094 -1.07925781 11.05992188 -1.08789062 9.99609375 C-1.09111328 9.00996094 -1.09433594 8.02382812 -1.09765625 7.0078125 C-1.10289307 6.09660645 -1.10812988 5.18540039 -1.11352539 4.24658203 C-1 2 -1 2 0 0 Z " fill="#3288C3" transform="translate(41,92)"/>
<path d="M0 0 C0.886875 0.474375 1.77375 0.94875 2.6875 1.4375 C2.6875 2.0975 2.6875 2.7575 2.6875 3.4375 C-4.2737327 7.46223255 -4.2737327 7.46223255 -7.9375 7.375 C-10.83058998 6.2329908 -13.57054091 4.90412928 -16.3125 3.4375 C-15.3125 0.4375 -15.3125 0.4375 -12.0625 -1.3125 C-6.85640996 -3.04786335 -4.85768097 -2.29135895 0 0 Z " fill="#F0F4F8" transform="translate(60.3125,18.5625)"/>
<path d="M0 0 C2.4375 1.25 2.4375 1.25 4 3 C4 4.32 4 5.64 4 7 C-1.28 7 -6.56 7 -12 7 C-11 3 -11 3 -9.375 1.25 C-6.06287624 -0.49322303 -3.69154926 -0.39552314 0 0 Z " fill="#F8F8F8" transform="translate(305,43)"/>
<path d="M0 0 C6 0 6 0 9 2 C8.814375 3.093125 8.62875 4.18625 8.4375 5.3125 C7.7421932 8.93624133 7.7421932 8.93624133 9 12 C5.125 10.25 5.125 10.25 4 8 C3.67 9.65 3.34 11.3 3 13 C2.01 13 1.02 13 0 13 C0 8.71 0 4.42 0 0 Z " fill="#414141" transform="translate(116,89)"/>
<path d="M0 0 C3.375 -0.125 3.375 -0.125 7 0 C7.66 0.66 8.32 1.32 9 2 C8.70241581 4.3381615 8.36760731 6.67182036 8 9 C8.33 9.99 8.66 10.98 9 12 C8.01 11.67 7.02 11.34 6 11 C5.3125 8.9375 5.3125 8.9375 5 7 C4.34 7 3.68 7 3 7 C3 8.98 3 10.96 3 13 C2.01 13 1.02 13 0 13 C0 8.71 0 4.42 0 0 Z " fill="#7D7D7D" transform="translate(196,89)"/>
<path d="M0 0 C4.9723422 1.49170266 9.41845739 3.60457417 14 6 C10.2028891 9.46692734 5.82275859 10.51061867 1 12 C0.67 8.04 0.34 4.08 0 0 Z " fill="#3283BE" transform="translate(73,53)"/>
<path d="M0 0 C4.23429756 1.31061591 8.07407404 2.94356259 12 5 C12 5.66 12 6.32 12 7 C10.56570999 7.67354499 9.12742943 8.33859701 7.6875 9 C6.48673828 9.556875 6.48673828 9.556875 5.26171875 10.125 C3 11 3 11 0 11 C0 7.37 0 3.74 0 0 Z " fill="#357AB6" transform="translate(40,51)"/>
<path d="M0 0 C0.33 4.29 0.66 8.58 1 13 C-3 15 -3 15 -6 15 C-6.33 11.04 -6.66 7.08 -7 3 C-1.125 0 -1.125 0 0 0 Z " fill="#3665A5" transform="translate(40,50)"/>
<path d="M0 0 C0.66 0 1.32 0 2 0 C2.83790789 1.78953185 3.67019396 3.58169695 4.5 5.375 C4.9640625 6.37273437 5.428125 7.37046875 5.90625 8.3984375 C7 11 7 11 7 13 C6.01 12.67 5.02 12.34 4 12 C4 11.34 4 10.68 4 10 C2.02 10 0.04 10 -2 10 C-2.33 10.99 -2.66 11.98 -3 13 C-3.66 13 -4.32 13 -5 13 C-4.54554036 11.58208592 -4.08625056 10.16571954 -3.625 8.75 C-3.24214844 7.56664063 -3.24214844 7.56664063 -2.8515625 6.359375 C-2.04826333 4.13372042 -1.10288338 2.09068328 0 0 Z " fill="#262626" transform="translate(183,89)"/>
<path d="M0 0 C2.97 0 5.94 0 9 0 C9 0.66 9 1.32 9 2 C7.02 2 5.04 2 3 2 C3 2.99 3 3.98 3 5 C4.65 5 6.3 5 8 5 C8 5.66 8 6.32 8 7 C6.35 7 4.7 7 3 7 C3 8.32 3 9.64 3 11 C4.98 11 6.96 11 9 11 C9 11.66 9 12.32 9 13 C2.84765625 13.09765625 2.84765625 13.09765625 1 13 C0 12 0 12 -0.09765625 9.27734375 C-0.08605469 8.17519531 -0.07445312 7.07304688 -0.0625 5.9375 C-0.05347656 4.83277344 -0.04445312 3.72804688 -0.03515625 2.58984375 C-0.02355469 1.73519531 -0.01195312 0.88054687 0 0 Z " fill="#464646" transform="translate(132,89)"/>
<path d="M0 0 C1.98 0.99 1.98 0.99 4 2 C4.46588547 4.82517725 4.69615501 7.29079561 4.75 10.125 C4.77964844 10.87910156 4.80929688 11.63320312 4.83984375 12.41015625 C4.91057932 14.27285953 4.95754983 16.13643755 5 18 C3.35 18.33 1.7 18.66 0 19 C0 12.73 0 6.46 0 0 Z " fill="#2D95CF" transform="translate(77,91)"/>
<path d="M0 0 C0.66 0.33 1.32 0.66 2 1 C2.33 6.94 2.66 12.88 3 19 C1.35 18.67 -0.3 18.34 -2 18 C-2.05382106 15.37472811 -2.09358313 12.75055287 -2.125 10.125 C-2.14175781 9.37863281 -2.15851562 8.63226563 -2.17578125 7.86328125 C-2.1933959 5.90805539 -2.10320189 3.95257979 -2 2 C-1.34 1.34 -0.68 0.68 0 0 Z " fill="#395A9B" transform="translate(29,92)"/>
<path d="M0 0 C3 1 3 1 4.16796875 2.99609375 C4.50441406 3.80175781 4.84085937 4.60742188 5.1875 5.4375 C5.53167969 6.24058594 5.87585938 7.04367188 6.23046875 7.87109375 C7 10 7 10 7 12 C2.545 11.01 2.545 11.01 -2 10 C-2 10.66 -2 11.32 -2 12 C-2.66 12 -3.32 12 -4 12 C-3.33501617 7.61110675 -1.81242323 4.0188515 0 0 Z " fill="#1F1F1F" transform="translate(278,89)"/>
<path d="M0 0 C0.66 0 1.32 0 2 0 C2.67354499 1.43429001 3.33859701 2.87257057 4 4.3125 C4.556875 5.51326172 4.556875 5.51326172 5.125 6.73828125 C6 9 6 9 6 12 C5.34 12 4.68 12 4 12 C4 11.34 4 10.68 4 10 C1.03 10.66 -1.94 11.32 -5 12 C-2.25 3.375 -2.25 3.375 0 0 Z " fill="#202020" transform="translate(336,89)"/>
<path d="M0 0 C6 0 6 0 8 1 C8.042721 2.66611905 8.04063832 4.33382885 8 6 C7 7 7 7 4.4375 7.0625 C3.2309375 7.0315625 3.2309375 7.0315625 2 7 C2 8.65 2 10.3 2 12 C1.34 12 0.68 12 0 12 C0 8.04 0 4.08 0 0 Z " fill="#434343" transform="translate(292,89)"/>
<path d="M0 0 C0.66 0 1.32 0 2 0 C2 3.96 2 7.92 2 12 C1.34 12 0.68 12 0 12 C0 10.35 0 8.7 0 7 C-1.98 7 -3.96 7 -6 7 C-6 8.65 -6 10.3 -6 12 C-6.66 12 -7.32 12 -8 12 C-8 8.37 -8 4.74 -8 1 C-7.34 1 -6.68 1 -6 1 C-6 2.32 -6 3.64 -6 5 C-4.02 5 -2.04 5 0 5 C0 3.35 0 1.7 0 0 Z " fill="#181818" transform="translate(238,89)"/>
<path d="M0 0 C0.33 0 0.66 0 1 0 C1 4.29 1 8.58 1 13 C1.928125 12.505 2.85625 12.01 3.8125 11.5 C7 10 7 10 10 10 C10 12.31 10 14.62 10 17 C6.08393425 16.46599103 3.60661066 15.80330533 0 14 C0 9.38 0 4.76 0 0 Z " fill="#51558D" transform="translate(27,14)"/>
<path d="M0 0 C0.99 0 1.98 0 3 0 C3 3.3 3 6.6 3 10 C4.65 10 6.3 10 8 10 C8 10.99 8 11.98 8 13 C5.36 13 2.72 13 0 13 C0 8.71 0 4.42 0 0 Z " fill="#5F5F5F" transform="translate(349,89)"/>
<path d="M0 0 C1.0725 0.2475 2.145 0.495 3.25 0.75 C3.25 1.41 3.25 2.07 3.25 2.75 C0.94 2.75 -1.37 2.75 -3.75 2.75 C-3.75 4.73 -3.75 6.71 -3.75 8.75 C-2.574375 8.9665625 -2.574375 8.9665625 -1.375 9.1875 C1.25 9.75 1.25 9.75 3.25 10.75 C1.25 12.75 1.25 12.75 -1.125 13.125 C-3.75 12.75 -3.75 12.75 -6.0625 11.0625 C-7.75 8.75 -7.75 8.75 -8.25 6.25 C-7.23479166 1.17395832 -5.10014603 -0.34000974 0 0 Z " fill="#323232" transform="translate(219.75,89.25)"/>
<path d="M0 0 C0.78375 0.04125 1.5675 0.0825 2.375 0.125 C2.375 1.115 2.375 2.105 2.375 3.125 C1.055 3.125 -0.265 3.125 -1.625 3.125 C-1.955 3.785 -2.285 4.445 -2.625 5.125 C-0.645 5.785 1.335 6.445 3.375 7.125 C2.5 12 2.5 12 1.375 13.125 C-0.29117115 13.16563832 -1.95888095 13.167721 -3.625 13.125 C-3.955 12.135 -4.285 11.145 -4.625 10.125 C-2.975 10.125 -1.325 10.125 0.375 10.125 C0.705 9.465 1.035 8.805 1.375 8.125 C0.570625 7.8775 -0.23375 7.63 -1.0625 7.375 C-3.625 6.125 -3.625 6.125 -4.5625 4.125 C-4.583125 3.465 -4.60375 2.805 -4.625 2.125 C-2.625 0.125 -2.625 0.125 0 0 Z " fill="#292929" transform="translate(152.625,88.875)"/>
<path d="M0 0 C0.99 0.33 1.98 0.66 3 1 C3 8.59 3 16.18 3 24 C1.35 23.67 -0.3 23.34 -2 23 C-1.67 22.34 -1.34 21.68 -1 21 C-0.84824451 19.40737934 -0.75099675 17.80935144 -0.68359375 16.2109375 C-0.64169922 15.26992187 -0.59980469 14.32890625 -0.55664062 13.359375 C-0.51732422 12.37453125 -0.47800781 11.3896875 -0.4375 10.375 C-0.39431641 9.38242188 -0.35113281 8.38984375 -0.30664062 7.3671875 C-0.20038931 4.91160162 -0.09835036 2.45591297 0 0 Z " fill="#327BB8" transform="translate(38,91)"/>
<path d="M0 0 C0 0.99 0 1.98 0 3 C-1.65 3 -3.3 3 -5 3 C-6.00217064 6.58327753 -6.00217064 6.58327753 -5 10 C-2.69 10 -0.38 10 2 10 C1.01 11.485 1.01 11.485 0 13 C-3.375 12.6875 -3.375 12.6875 -7 12 C-9 9 -9 9 -8.8125 5.4375 C-7.54516738 0.07570816 -5.02641835 -0.27169829 0 0 Z " fill="#1E1E1E" transform="translate(266,89)"/>
<path d="M0 0 C2.97 0 5.94 0 9 0 C9 0.66 9 1.32 9 2 C8.01 2 7.02 2 6 2 C6 5.63 6 9.26 6 13 C5.01 13 4.02 13 3 13 C3 9.37 3 5.74 3 2 C2.01 2 1.02 2 0 2 C0 1.34 0 0.68 0 0 Z " fill="#4B4B4B" transform="translate(317,89)"/>
<path d="M0 0 C1.31554985 0.4495045 2.62738358 0.90989716 3.9375 1.375 C5.03384766 1.75785156 5.03384766 1.75785156 6.15234375 2.1484375 C8 3 8 3 9 5 C2.375 8 2.375 8 -1 8 C-1.04241723 5.66705225 -1.04092937 3.33297433 -1 1 C-0.67 0.67 -0.34 0.34 0 0 Z " fill="#3666A5" transform="translate(89,97)"/>
<path d="M0 0 C0.33 0 0.66 0 1 0 C1 4.62 1 9.24 1 14 C-5 17 -5 17 -8 17 C-8 14.69 -8 12.38 -8 10 C-5.36 10.99 -2.72 11.98 0 13 C0 8.71 0 4.42 0 0 Z " fill="#42669C" transform="translate(79,14)"/>
<path d="M0 0 C0.33 0.66 0.66 1.32 1 2 C2.98248715 2.71706982 4.98415349 3.38290413 7 4 C7.66 4.33 8.32 4.66 9 5 C9 5.66 9 6.32 9 7 C5.86501708 8.85776765 3.62528568 9.20140476 0 9 C0 6.03 0 3.06 0 0 Z " fill="#3B7CB7" transform="translate(43,20)"/>
<path d="M0 0 C0.99 0.33 1.98 0.66 3 1 C2.98839844 1.84304687 2.97679688 2.68609375 2.96484375 3.5546875 C2.95582031 4.65039062 2.94679688 5.74609375 2.9375 6.875 C2.92589844 7.96554688 2.91429688 9.05609375 2.90234375 10.1796875 C2.80255697 12.95177546 2.80255697 12.95177546 4 15 C2.68 15 1.36 15 0 15 C0 10.05 0 5.1 0 0 Z " fill="#3186C1" transform="translate(81,93)"/>
<path d="M0 0 C4.455 1.98 4.455 1.98 9 4 C6.06171403 6.50298434 3.82097239 7.46930939 0 8 C0 5.36 0 2.72 0 0 Z " fill="#3A65A4" transform="translate(78,55)"/>
<path d="M0 0 C1.953125 0.7421875 1.953125 0.7421875 4 2 C4.83886169 4.67790463 4.81766414 7.1737941 5 10 C3.125 10.625 3.125 10.625 1 11 C0.34 10.34 -0.32 9.68 -1 9 C-0.9765625 6.8359375 -0.9765625 6.8359375 -0.625 4.375 C-0.51414062 3.55773437 -0.40328125 2.74046875 -0.2890625 1.8984375 C-0.19367188 1.27195312 -0.09828125 0.64546875 0 0 Z " fill="#3292CA" transform="translate(67,22)"/>
<path d="M0 0 C3.465 1.485 3.465 1.485 7 3 C7 3.66 7 4.32 7 5 C2.545 6.485 2.545 6.485 -2 8 C-1.125 1.125 -1.125 1.125 0 0 Z " fill="#3187C2" transform="translate(45,53)"/>
<path d="M0 0 C0.66 0 1.32 0 2 0 C3.04976964 3.14930893 3.10131595 5.38814456 3.0625 8.6875 C3.05347656 9.68136719 3.04445313 10.67523438 3.03515625 11.69921875 C3.02355469 12.45847656 3.01195313 13.21773437 3 14 C1.68 13.34 0.36 12.68 -1 12 C-0.67 8.04 -0.34 4.08 0 0 Z " fill="#2D96CF" transform="translate(71,52)"/>
<path d="M0 0 C2.475 0.495 2.475 0.495 5 1 C5 1.66 5 2.32 5 3 C5.66 3.33 6.32 3.66 7 4 C6.67 4.99 6.34 5.98 6 7 C6.33 7.99 6.66 8.98 7 10 C5.68 9.34 4.36 8.68 3 8 C3 6.68 3 5.36 3 4 C2.01 4 1.02 4 0 4 C0 2.68 0 1.36 0 0 Z " fill="#707070" transform="translate(118,91)"/>
<path d="M0 0 C0.66 0 1.32 0 2 0 C2 0.99 2 1.98 2 3 C3.32 3 4.64 3 6 3 C6.66 4.98 7.32 6.96 8 9 C7.01 8.67 6.02 8.34 5 8 C4.3125 5.9375 4.3125 5.9375 4 4 C3.34 4 2.68 4 2 4 C2 5.65 2 7.3 2 9 C1.34 9 0.68 9 0 9 C0 6.03 0 3.06 0 0 Z " fill="#050505" transform="translate(197,92)"/>
<path d="M0 0 C0.66 0 1.32 0 2 0 C2 2.64 2 5.28 2 8 C2.99 8.33 3.98 8.66 5 9 C3.02 9.33 1.04 9.66 -1 10 C-1.02689216 8.52093108 -1.04634621 7.04172517 -1.0625 5.5625 C-1.07410156 4.73878906 -1.08570313 3.91507813 -1.09765625 3.06640625 C-1 1 -1 1 0 0 Z " fill="#3566A5" transform="translate(41,21)"/>
<path d="M0 0 C0.99 0.33 1.98 0.66 3 1 C4.1875 4.0625 4.1875 4.0625 5 7 C3.35 7.33 1.7 7.66 0 8 C-1.125 2.25 -1.125 2.25 0 0 Z " fill="#676767" transform="translate(278,89)"/>
<path d="M0 0 C0.33 4.29 0.66 8.58 1 13 C0.01 13 -0.98 13 -2 13 C-2.33 9.04 -2.66 5.08 -3 1 C-1 0 -1 0 0 0 Z " fill="#385799" transform="translate(36,52)"/>
<path d="M0 0 C0.66 0 1.32 0 2 0 C2 1.65 2 3.3 2 5 C3.65 5 5.3 5 7 5 C7 5.33 7 5.66 7 6 C5.35 6 3.7 6 2 6 C2 7.65 2 9.3 2 11 C1.34 11 0.68 11 0 11 C0 7.37 0 3.74 0 0 Z " fill="#000000" transform="translate(230,90)"/>
<path d="M0 0 C1.2065625 0.0309375 1.2065625 0.0309375 2.4375 0.0625 C2.4375 1.0525 2.4375 2.0425 2.4375 3.0625 C1.1175 3.0625 -0.2025 3.0625 -1.5625 3.0625 C-1.8925 3.7225 -2.2225 4.3825 -2.5625 5.0625 C-1.5725 5.3925 -0.5825 5.7225 0.4375 6.0625 C-0.5525 6.3925 -1.5425 6.7225 -2.5625 7.0625 C-3.2225 6.4025 -3.8825 5.7425 -4.5625 5.0625 C-3.80953264 0.09291543 -3.80953264 0.09291543 0 0 Z " fill="#212121" transform="translate(152.5625,88.9375)"/>
<path d="M0 0 C0.53625 0.825 1.0725 1.65 1.625 2.5 C3.80271869 5.33951208 3.80271869 5.33951208 7.25 5.3125 C8.1575 5.209375 9.065 5.10625 10 5 C9.01 6.485 9.01 6.485 8 8 C5.13381787 8.4409511 3.63344953 8.41501866 1.1875 6.8125 C-0.36678206 4.44017475 -0.22537188 2.77958655 0 0 Z " fill="#1E1E1E" transform="translate(213,94)"/>
<path d="M0 0 C0.66 0 1.32 0 2 0 C4.125 4.625 4.125 4.625 3 8 C1.68 8 0.36 8 -1 8 C-1.125 2.25 -1.125 2.25 0 0 Z " fill="#737373" transform="translate(183,89)"/>
<path d="M0 0 C2.475 0.99 2.475 0.99 5 2 C5 2.66 5 3.32 5 4 C3.02 4.66 1.04 5.32 -1 6 C-1.042721 4.33388095 -1.04063832 2.66617115 -1 1 C-0.67 0.67 -0.34 0.34 0 0 Z " fill="#2F8CC6" transform="translate(47,23)"/>
<path d="M0 0 C1.98 0.99 3.96 1.98 6 3 C3.64046906 5.35953094 2.22104383 5.49141413 -1 6 C-0.67 4.02 -0.34 2.04 0 0 Z " fill="#3D5999" transform="translate(92,98)"/>
<path d="M0 0 C0.99 0.33 1.98 0.66 3 1 C3 3.97 3 6.94 3 10 C2.01 10 1.02 10 0 10 C0 6.7 0 3.4 0 0 Z " fill="#3672B0" transform="translate(86,96)"/>
<path d="M0 0 C3.46941546 0.45822468 6.67395049 0.89131683 10 2 C9.34 2.66 8.68 3.32 8 4 C4.375 3.625 4.375 3.625 1 3 C0.67 2.01 0.34 1.02 0 0 Z " fill="#2A2A2A" transform="translate(258,98)"/>
<path d="M0 0 C0.66 0.33 1.32 0.66 2 1 C1.67 1.66 1.34 2.32 1 3 C1.27942455 4.67654729 1.60828247 6.34608154 2 8 C1.01 8 0.02 8 -1 8 C-1.625 5.6875 -1.625 5.6875 -2 3 C-1.34 2.01 -0.68 1.02 0 0 Z " fill="#848484" transform="translate(336,89)"/>
<path d="M0 0 C0.33 0.99 0.66 1.98 1 3 C1.99 3.33 2.98 3.66 4 4 C2.68 4 1.36 4 0 4 C-0.33 4.99 -0.66 5.98 -1 7 C-1.66 7 -2.32 7 -3 7 C-1.125 1.125 -1.125 1.125 0 0 Z " fill="#131313" transform="translate(334,94)"/>
<path d="M0 0 C2.475 0.99 2.475 0.99 5 2 C5 2.66 5 3.32 5 4 C3.35 4.33 1.7 4.66 0 5 C0 3.35 0 1.7 0 0 Z " fill="#2C96CF" transform="translate(47,54)"/>
</svg>
